<?xml version="1.0" encoding="UTF-8"?>
<svg width="72px" height="68px" viewBox="0 0 72 68" version="1.1" xmlns="http://www.w3.org/2000/svg" xmlns:xlink="http://www.w3.org/1999/xlink">
    <!-- Generator: sketchtool 42 (36781) - http://www.bohemiancoding.com/sketch -->
    <title>3AE3478F-EE8E-485B-A723-825150EFE2A8</title>
    <desc>Created with sketchtool.</desc>
    <defs></defs>
    <g id="Page-1" stroke="none" stroke-width="1" fill="none" fill-rule="evenodd">
        <g id="Lobby-Copy" transform="translate(-273.000000, -191.000000)" fill="#FFFFFF">
            <path d="M340.5,247.25 L340.5,251 C340.5,255.143748 337.14375,258.5 333,258.5 L280.5,258.5 C276.35625,258.5 273,255.143748 273,251 L273,198.5 C273,194.35625 276.35625,191 280.5,191 L333,191 C337.14375,191 340.5,194.35625 340.5,198.5 L340.5,202.25 L306.75,202.25 C302.60625,202.25 299.25,205.60625 299.25,209.75 L299.25,239.75 C299.25,243.89375 302.60625,247.25 306.75,247.25 L340.5,247.25 Z M306.75,239.75 L344.25,239.75 L344.25,209.75 L306.75,209.75 L306.75,239.75 Z M321.75,230.375 C318.6375,230.375 316.125,227.8625 316.125,224.75 C316.125,221.6375 318.6375,219.125 321.75,219.125 C324.8625,219.125 327.375,221.6375 327.375,224.75 C327.375,227.8625 324.8625,230.375 321.75,230.375 Z" id="Page-1"></path>
        </g>
    </g>
</svg>