<?xml version="1.0" encoding="UTF-8"?>
<svg width="26px" height="31px" viewBox="0 0 26 31" version="1.1" xmlns="http://www.w3.org/2000/svg" xmlns:xlink="http://www.w3.org/1999/xlink">
    <!-- Generator: sketchtool 42 (36781) - http://www.bohemiancoding.com/sketch -->
    <title>6F115F76-726C-4EE0-9FF6-2C3279014E1D</title>
    <desc>Created with sketchtool.</desc>
    <defs></defs>
    <g id="Page-1" stroke="none" stroke-width="1" fill="none" fill-rule="evenodd">
        <g id="Lobby-Copy" transform="translate(-493.000000, -221.000000)">
            <g id="Group-4">
                <g id="Utility" transform="translate(138.000000, 83.000000)">
                    <g transform="translate(24.000000, 0.000000)" id="Play-money-icon">
                        <g transform="translate(331.000000, 138.000000)">
                            <path d="M20.703683,3.73945616 C16.8903489,3.73945616 14.5745465,1.52265018 13.5767418,0.28131633 C13.2752209,-0.09377211 12.7247202,-0.09377211 12.4231993,0.28131633 C11.4253946,1.52265018 9.10965114,3.73945616 5.29625812,3.73945616 L1.0399788,3.73945616 C0.465563684,3.73945616 0,4.21807991 0,4.80847335 L0,11.7572667 C-5.89022879e-05,24.0512672 9.62958164,29.9309828 12.9999705,31 C16.3703595,29.9309828 26,24.0512066 26,11.7572667 L26,4.80847335 C26,4.21801936 25.5343774,3.73945616 24.9600212,3.73945616 L20.703683,3.73945616 L20.703683,3.73945616 Z" id="Shape" fill="#3FDF87"></path>
                            <path d="M12.9136002,8 C12.1279883,8 11.4677707,8.5960979 11.2945747,9.39467671 C9.24103011,9.93904455 8,11.5099364 8,13.650722 C8,15.395116 8.83964364,16.7435501 10.3429597,17.4799172 C10.2712573,17.4712853 10.198592,17.466846 10.125417,17.466846 L10.0278314,17.466846 C9.30899452,17.466846 8.6443026,17.8927095 8.29315315,18.5782097 C7.9420037,19.2635867 7.95712579,20.0688244 8.33353534,20.7322515 C8.93286815,21.7888024 9.98790234,22.509262 11.3504188,22.8085441 C11.5833102,23.5028613 12.1961226,24 12.9135436,24 C13.6386672,24 14.2569168,23.4923179 14.4839746,22.7861627 C16.7020497,22.2623265 18,20.6704714 18,18.4061256 C18,17.1375987 17.5888153,15.5723176 15.8387318,14.6588106 C16.441123,14.5570152 16.9751533,14.1563077 17.276349,13.5626144 C17.6251196,12.8752644 17.6059763,12.0715065 17.2252057,11.4125186 C16.6547578,10.4251467 15.7159428,9.72897985 14.5338151,9.40115067 C14.3630545,8.59930405 13.701421,8 12.9136002,8 L12.9136002,8 Z M11.2919485,17.8802246 C11.2589388,17.8558778 11.2257349,17.8320468 11.1919485,17.8090412 C11.2251524,17.8186355 11.2584533,17.8281266 11.2919485,17.8375145 L11.2919485,17.8802246 L11.2919485,17.8802246 Z" id="Shape" fill="#3FDF87"></path>
                            <path d="M13,2.76409134 C14.5303369,4.23483835 17.0565325,5.87759937 20.7037539,5.87759937 L23.9199882,5.87759937 L23.9199882,11.7573179 C23.9199882,16.5215791 22.3446501,20.6862435 19.2376793,24.1354241 C16.9678847,26.6552689 14.4378016,28.1199612 13,28.7268237 C11.5621395,28.1199612 9.03211527,26.6553294 6.76232074,24.1354241 C3.6553499,20.6862435 2.08001178,16.5215791 2.08001178,11.7573179 L2.08001178,5.87759937 L5.29624612,5.87759937 C8.94346752,5.87759937 11.4696631,4.2347778 13,2.76409134 L13,2.76409134 Z M13,0 C12.7870098,0 12.5740196,0.0937267456 12.4231712,0.281301331 C11.4253687,1.52263579 9.1096305,3.73944285 5.29624612,3.73944285 L1.03997644,3.73944285 C0.465621531,3.73944285 0,4.21812738 0,4.80846056 L0,11.7572573 C0,24.0512032 9.62961872,29.9309823 13,31 C16.3703813,29.9309823 26,24.0512032 26,11.7572573 L26,4.80846056 C26,4.21806683 25.5343196,3.73944285 24.9600236,3.73944285 L20.7037539,3.73944285 C16.8904284,3.73944285 14.5746313,1.52263579 13.5768288,0.281301331 C13.4260393,0.0937872926 13.2129902,0 13,0 L13,0 Z" id="Shape" fill="#3DE689"></path>
                            <path d="M13.4999704,29 C13.4325882,29 13.3651468,28.9864535 13.3013765,28.9598443 C12.4759153,28.6136825 9.57185004,27.2502622 6.84642455,24.2429363 C3.63043551,20.6959874 2,16.4139588 2,11.5166523 L2,5.64387599 C2,5.34875552 2.23376523,5.10999822 2.52271516,5.10999822 L5.75605304,5.10999822 C9.29415021,5.10999822 11.7260665,3.49687459 13.1431646,2.14391658 C13.343298,1.95202781 13.656702,1.95202781 13.8568354,2.14391658 C15.2739335,3.49687459 17.7057906,5.10999822 21.243947,5.10999822 L24.4772848,5.10999822 C24.7662348,5.10999822 25,5.34875552 25,5.64387599 L25,11.5166523 C25,16.4139588 23.3695645,20.6959874 20.1535162,24.2429363 C17.4280908,27.2502622 14.5240255,28.613622 13.6985643,28.9598443 C13.6346755,28.9864535 13.5673526,29 13.4999704,29 Z M3.04543032,6.17781422 L3.04543032,11.5167128 C3.04543032,16.1366786 4.58243079,20.1742047 7.61314846,23.5172302 C10.0067552,26.1579536 12.5285539,27.4531575 13.4999704,27.886404 C14.4713869,27.4531575 16.9931856,26.1580746 19.3867923,23.5172302 C22.41751,20.1741443 23.9545105,16.1366181 23.9545105,11.5167128 L23.9545105,6.17781422 L21.2438877,6.17781422 C17.6470532,6.17781422 15.0921556,4.65643193 13.4999704,3.25182784 C11.9077852,4.65643193 9.35282836,6.17781422 5.75605304,6.17781422 L3.04543032,6.17781422 L3.04543032,6.17781422 Z" id="Shape" fill="#31CA76"></path>
                            <path d="M17,18.4368705 C17,16.7093358 16.0758209,15.6505464 14.2275192,15.2047371 L13.5768899,15.063919 L13.5768899,12.0946251 C14.0735271,12.2092778 14.4655019,12.5338775 14.6610645,12.9665105 C14.8265536,13.332575 15.1641015,13.5648156 15.5351211,13.5648156 C16.2909227,13.5648156 16.7812168,12.6462197 16.3787645,11.9407556 C15.8534696,11.0199117 14.868917,10.4024354 13.5768332,10.2441947 L13.5768332,9.73137963 C13.5768332,9.32747223 13.279893,9 12.9135175,9 C12.5471987,9 12.2502018,9.32747223 12.2502018,9.73137963 L12.2502018,10.2440073 C10.1995979,10.4901735 9,11.7276239 9,13.6205183 C9,15.2764262 9.93137185,16.3829876 11.6714429,16.828797 L12.2502018,16.9792943 L12.2502018,20.0997725 C11.6641369,19.979562 11.2183018,19.6484054 10.998216,19.183175 C10.8272332,18.8216067 10.4951789,18.5881797 10.1253487,18.5881797 L10.0277656,18.5881797 C9.27145426,18.5881797 8.78688037,19.5040278 9.18429213,20.213551 C9.72567149,21.1800437 10.7939881,21.7890896 12.2501451,21.9237879 L12.2501451,22.2686204 C12.2501451,22.6725278 12.547142,23 12.9134609,23 C13.2797797,23 13.5767766,22.6725902 13.5767766,22.2686204 L13.5767766,21.9162942 C15.7662509,21.6676301 17,20.421687 17,18.4368705 Z M11.0867374,13.4215621 C11.0867374,12.7267139 11.5627026,12.2010348 12.250315,12.0830099 L12.250315,14.7563674 C11.490379,14.5279986 11.0867374,14.070699 11.0867374,13.4215621 Z M13.5768332,20.1281859 L13.5768332,17.256122 C14.5169836,17.4893617 14.9567021,17.9510951 14.9567021,18.6916544 C14.9567021,19.4982203 14.4477749,20.027334 13.5768332,20.1281859 Z" id="Shape" fill="#FFF5C8"></path>
                            <path d="M17,18.4368705 C17,16.7093358 16.0758209,15.6505464 14.2275192,15.2047371 L13.5768899,15.063919 L13.5768899,12.0946251 C14.0735271,12.2092778 14.4655019,12.5338775 14.6610645,12.9665105 C14.8265536,13.332575 15.1641015,13.5648156 15.5351211,13.5648156 C16.2909227,13.5648156 16.7812168,12.6462197 16.3787645,11.9407556 C15.8534696,11.0199117 14.868917,10.4024354 13.5768332,10.2441947 L13.5768332,9.73137963 C13.5768332,9.32747223 13.279893,9 12.9135175,9 C12.5471987,9 12.2502018,9.32747223 12.2502018,9.73137963 L12.2502018,10.2440073 C10.1995979,10.4901735 9,11.7276239 9,13.6205183 C9,15.2764262 9.93137185,16.3829876 11.6714429,16.828797 L12.2502018,16.9792943 L12.2502018,20.0997725 C11.6641369,19.979562 11.2183018,19.6484054 10.998216,19.183175 C10.8272332,18.8216067 10.4951789,18.5881797 10.1253487,18.5881797 L10.0277656,18.5881797 C9.27145426,18.5881797 8.78688037,19.5040278 9.18429213,20.213551 C9.72567149,21.1800437 10.7939881,21.7890896 12.2501451,21.9237879 L12.2501451,22.2686204 C12.2501451,22.6725278 12.547142,23 12.9134609,23 C13.2797797,23 13.5767766,22.6725902 13.5767766,22.2686204 L13.5767766,21.9162942 C15.7662509,21.6676301 17,20.421687 17,18.4368705 Z M11.0867374,13.4215621 C11.0867374,12.7267139 11.5627026,12.2010348 12.250315,12.0830099 L12.250315,14.7563674 C11.490379,14.5279986 11.0867374,14.070699 11.0867374,13.4215621 Z M13.5768332,20.1281859 L13.5768332,17.256122 C14.5169836,17.4893617 14.9567021,17.9510951 14.9567021,18.6916544 C14.9567021,19.4982203 14.4477749,20.027334 13.5768332,20.1281859 Z" id="Shape" fill="#31CA76"></path>
                        </g>
                    </g>
                </g>
            </g>
        </g>
    </g>
</svg>