<?xml version="1.0" encoding="UTF-8"?>
<svg width="23px" height="29px" viewBox="0 0 23 29" version="1.1" xmlns="http://www.w3.org/2000/svg" xmlns:xlink="http://www.w3.org/1999/xlink">
    <!-- Generator: sketchtool 41.2 (35397) - http://www.bohemiancoding.com/sketch -->
    <title>A2D8495F-1431-4B95-A3DF-8817A12F2BB1</title>
    <desc>Created with sketchtool.</desc>
    <defs></defs>
    <g id="Page-1" stroke="none" stroke-width="1" fill="none" fill-rule="evenodd">
        <g id="CASH-GAMES--FILTER" transform="translate(-413.000000, -769.000000)" fill="#3DE689">
            <g id="2-cards" transform="translate(413.000000, 769.000000)">
                <path d="M7,20.3064516 C7,22.1827957 9.91594203,24.4139785 10.4956522,24.8387097 C10.6463768,24.9462366 10.826087,25 11,25 C11.1855072,25 11.3652174,24.9408602 11.515942,24.827957 C12.0956522,24.3870968 15,22.0860215 15,20.3010753 C15,19.0322581 13.8869565,18 12.5188406,18 C11.9507246,18 11.4173913,18.1774194 10.9942029,18.4892473 C10.5652174,18.1774194 10.0318841,18 9.46956522,18 C8.11304348,18.0053763 7,19.0376344 7,20.3064516 Z" id="Shape"></path>
                <path d="M10.4931258,13.8387097 C10.6437411,13.9462366 10.8233209,14 11.0029008,14 C11.1882735,14 11.3678533,13.9408602 11.5184686,13.827957 C12.0977584,13.3870968 15,11.0860215 15,9.30107527 C15,8.03225806 13.8877637,7 12.5206399,7 C11.9529359,7 11.4199894,7.17741935 10.9971079,7.48924731 C10.5684335,7.17741935 10.0354869,7 9.47357584,7 C8.10645204,7 7.00000863,8.03225806 7.00000863,9.30107527 C6.99421573,11.1774194 9.90804314,13.4086022 10.4931258,13.8387097 Z" id="Shape"></path>
                <path d="M22.2016248,0 L6.14918759,0 C5.70753323,0 5.35081241,0.359645669 5.35081241,0.80492126 L5.35081241,4.15019685 L0.798375185,4.15019685 C0.356720827,4.15019685 0,4.50984252 0,4.95511811 L0,28.1950787 C0,28.6403543 0.356720827,29 0.798375185,29 L18.0851797,29 C18.5268341,29 18.8835549,28.6403543 18.8835549,28.1950787 L18.8835549,24.0220472 L22.2016248,24.0220472 C22.6432792,24.0220472 23,23.6624016 23,23.217126 L23,0.80492126 C23,0.359645669 22.6432792,0 22.2016248,0 Z M17.2868045,27.3901575 L1.59675037,27.3901575 L1.59675037,21.4874016 L2.79714426,21.4874016 C3.23879862,21.4874016 3.59551945,21.1277559 3.59551945,20.6824803 C3.59551945,20.2372047 3.23879862,19.8775591 2.79714426,19.8775591 L1.59675037,19.8775591 L1.59675037,18.2677165 L4.79025111,18.2677165 C5.23190547,18.2677165 5.58862629,17.9080709 5.58862629,17.4627953 C5.58862629,17.0175197 5.23190547,16.657874 4.79025111,16.657874 L1.59675037,16.657874 L1.59675037,5.76003937 L17.2868045,5.76003937 L17.2868045,27.3901575 L17.2868045,27.3901575 Z M21.4032496,22.4064961 L18.8835549,22.4064961 L18.8835549,4.95511811 C18.8835549,4.50984252 18.5268341,4.15019685 18.0851797,4.15019685 L6.94756278,4.15019685 L6.94756278,1.60984252 L21.4032496,1.60984252 L21.4032496,22.4064961 Z" id="Shape"></path>
            </g>
        </g>
    </g>
</svg>