<?xml version="1.0" encoding="UTF-8"?>
<svg width="36px" height="36px" viewBox="0 0 36 36" version="1.1" xmlns="http://www.w3.org/2000/svg" xmlns:xlink="http://www.w3.org/1999/xlink">
    <!-- Generator: sketchtool 41.2 (35397) - http://www.bohemiancoding.com/sketch -->
    <title>6FB351AE-2F80-477F-BF21-A35F46C07421</title>
    <desc>Created with sketchtool.</desc>
    <defs>
        <path d="M28.8190476,9.64942529 L29.1428571,6.75287356 L23.5166667,6.1091954 L23.1928571,3.05172414 L18.052381,3.65517241 L17.202381,1 L0,6.47126437 L7.81190476,30.6896552 L9.18809524,30.2471264 L10.1595238,30.1264368 L11.0904762,30.2471264 L25.1761905,35.3563218 L25.297619,34.9942529 L33.9190476,11.5 L28.8190476,9.64942529 Z M28.252381,7.43678161 L28.05,9.36781609 L23.7595238,7.79885057 L23.6380952,6.9137931 L28.252381,7.43678161 Z M22.8690476,7.47701149 L20.197619,6.51149425 L22.7880952,6.79310345 L22.8690476,7.47701149 Z M22.4642857,3.97701149 L22.7071429,5.98850575 L18.6595238,5.54597701 L18.2952381,4.45977011 L22.4642857,3.97701149 Z M17.7690476,5.42528736 L16.9595238,5.34482759 L16.9190476,5.34482759 L16.9190476,5.34482759 L13.6404762,4.98275862 L17.4857143,4.54022989 L17.7690476,5.42528736 Z M16.6357143,6.1091954 L9.67380952,25.1781609 L11.9,5.5862069 L16.6357143,6.1091954 Z M16.6761905,2.00574713 L17.2428571,3.73563218 L7.89285714,4.82183908 L16.6761905,2.00574713 Z M1.01190476,6.99425287 L5.30238095,5.62643678 L7.97380952,28.5172414 L1.01190476,6.99425287 Z M8.62142857,27.2298851 L6.15238095,5.82758621 L11.1309524,5.26436782 L8.62142857,27.2298851 Z M25.8642857,31.1321839 L25.702381,31.5344828 L25.5404762,31.9367816 L24.65,34.3505747 L14.5309524,30.6494253 L12.4261905,29.8850575 L11.4547619,29.5229885 L11.2928571,29.4425287 L10.7666667,29.2413793 L10.2404762,29.0402299 L9.26904762,28.7586207 L9.26904762,28.5977011 L17.4047619,6.35057471 L18.1738095,6.63218391 L19.1452381,6.99425287 L22.9904762,8.40229885 L23.8404762,8.68390805 L27.9285714,10.1724138 L28.697619,10.454023 L32.8666667,11.9425287 L26.5928571,29.1609195 L25.8642857,31.1321839 Z" id="path-1"></path>
        <mask id="mask-2" maskContentUnits="userSpaceOnUse" maskUnits="objectBoundingBox" x="-0.6" y="-0.6" width="35.1190476" height="35.5563218">
            <rect x="-0.6" y="0.4" width="35.1190476" height="35.5563218" fill="white"></rect>
            <use xlink:href="#path-1" fill="black"></use>
        </mask>
    </defs>
    <g id="Page-1" stroke="none" stroke-width="1" fill="none" fill-rule="evenodd">
        <g id="CASH-GAMES--FILTER" transform="translate(-406.000000, -855.000000)">
            <g id="4-cards" transform="translate(407.000000, 855.000000)">
                <polygon id="Shape" points="5.19285714 1.18965517 7.66190476 22.591954 10.1714286 0.626436782"></polygon>
                <polygon id="Shape" points="11.2261905 6 9 25.591954 15.9619048 6.52298851"></polygon>
                <polygon id="Shape" points="16.2380952 5.8045977 16.2380952 5.8045977 16.2785714 5.8045977 17.0880952 5.88505747 16.8047619 5 13 5.44252874"></polygon>
                <polygon id="Shape" points="27.4119048 9.45402299 27.6142857 7.52298851 23 7 23.0809524 7.88505747"></polygon>
                <polygon id="Shape" points="22.6309524 7.96551724 22.5904762 7.32183908 20 7"></polygon>
                <polygon id="Shape" points="0.0523809524 2.35632184 6.97380952 23.9195402 4.34285714 1.02873563"></polygon>
                <polygon id="Shape" points="22.3714286 6.01149425 22.1285714 4 18 4.44252874 18.3238095 5.56896552"></polygon>
                <polygon id="Shape" points="28.4690476 11.1034483 27.6595238 10.8218391 23.5714286 9.33333333 22.7214286 9.01149425 18.8761905 7.64367816 17.9047619 7.2816092 17.1357143 7 9 29.2471264 9 29.408046 9.93095238 29.7298851 10.4571429 29.9310345 10.9833333 30.1321839 11.1857143 30.2126437 12.1571429 30.5344828 14.2619048 31.2988506 24.4214286 35 25.3119048 32.545977 25.4333333 32.183908 25.5952381 31.7816092 26.3238095 29.8103448 32.597619 12.591954"></polygon>
                <polygon id="Shape" points="16.7833333 2 8 4.81609195 17.35 3.72988506"></polygon>
                <polygon id="Shape" points="22.3714286 6.01149425 22.1285714 4 18 4.44252874 18.3238095 5.56896552"></polygon>
                <polygon id="Shape" points="16.2380952 5.8045977 16.2380952 5.8045977 16.2785714 5.8045977 17.0880952 5.88505747 16.8047619 5 13 5.44252874"></polygon>
                <polygon id="Shape" points="22.6309524 7.96551724 22.5904762 7.32183908 20 7"></polygon>
                <polygon id="Shape" points="16.7833333 2 8 4.81609195 17.35 3.72988506"></polygon>
                <polygon id="Shape" points="27.4119048 9.45402299 27.6142857 7.52298851 23 7 23.0809524 7.88505747"></polygon>
                <polygon id="Shape" points="9 25.591954 15.9619048 6.52298851 11.2261905 6"></polygon>
                <path d="M28.4690476,11.1034483 L27.7,10.8218391 L23.5714286,9.33333333 L22.7214286,9.01149425 L18.8761905,7.60344828 L17.9047619,7.2816092 L17.1357143,7 L9,29.2471264 L9,29.408046 L9.93095238,29.7701149 L10.4571429,29.9712644 L10.9833333,30.1724138 L11.1452381,30.2528736 L12.1166667,30.6149425 L14.2214286,31.3793103 L24.3809524,35.0402299 L25.2714286,32.6264368 L25.4333333,32.2241379 L25.5952381,31.8218391 L26.3238095,29.8505747 L32.6380952,12.6724138 L28.4690476,11.1034483 Z M24.3809524,22.408046 C24.3404762,22.4482759 24.3,22.4482759 24.2190476,22.4885057 L24.1785714,22.4885057 C24.0166667,22.5689655 23.8142857,22.6494253 23.6119048,22.7298851 L19.1595238,24.5402299 L17.297619,20.1149425 C17.2166667,19.954023 17.1357143,19.7528736 17.0547619,19.591954 C16.7309524,18.5057471 17.1761905,17.2988506 18.147619,16.6954023 C19.3619048,15.8908046 20.9809524,16.2528736 21.7904762,17.4597701 C21.8714286,17.5804598 21.9119048,17.7011494 21.9928571,17.8218391 C23.1261905,17.3793103 24.4619048,17.7816092 25.15,18.8275862 C25.9595238,20.0344828 25.5952381,21.6436782 24.3809524,22.408046 Z" id="Shape"></path>
                <polygon id="Shape" points="5.19285714 1.18965517 7.66190476 22.591954 10.1714286 0.626436782"></polygon>
                <polygon id="Shape" points="0.0523809524 2.35632184 6.97380952 23.9195402 4.34285714 1.02873563"></polygon>
                <g id="Shape">
                    <use fill="#3DE689" fill-rule="evenodd" xlink:href="#path-1"></use>
                    <use stroke="#3DE689" mask="url(#mask-2)" stroke-width="1.2" stroke-linejoin="round" xlink:href="#path-1"></use>
                </g>
                <path d="M22.0474027,17.5568464 C21.9664504,17.4361568 21.9259742,17.3154671 21.8450218,17.1947775 C21.0759742,15.9878809 19.4164504,15.6258119 18.2021646,16.4304097 C17.1902599,17.0740878 16.785498,18.2809844 17.1093075,19.3269614 C17.1497837,19.5281108 17.2307361,19.6890303 17.3521646,19.8499499 L19.2140694,24.2752372 L23.6664504,22.4648924 C23.8688313,22.4246625 24.0712123,22.3442028 24.233117,22.2235131 L24.2735932,22.2235131 C24.3140694,22.1832832 24.3545456,22.1832832 24.435498,22.1430533 C25.6497837,21.3786855 26.0140694,19.7694901 25.2045456,18.5223637 C24.5164504,17.5166165 23.1807361,17.1143177 22.0474027,17.5568464 Z" id="Shape" fill="#3DE689"></path>
            </g>
        </g>
    </g>
</svg>