<?xml version="1.0" encoding="UTF-8"?>
<svg width="46px" height="46px" viewBox="0 0 46 46" version="1.1" xmlns="http://www.w3.org/2000/svg" xmlns:xlink="http://www.w3.org/1999/xlink">
    <!-- Generator: sketchtool 41.2 (35397) - http://www.bohemiancoding.com/sketch -->
    <title>E5D0C98A-C0C8-4BEB-879F-9827F3F580B0</title>
    <desc>Created with sketchtool.</desc>
    <defs></defs>
    <g id="Page-1" stroke="none" stroke-width="1" fill="none" fill-rule="evenodd">
        <g id="Table-basic-version" transform="translate(-1253.000000, -167.000000)">
            <g id="Add-money" transform="translate(1253.000000, 167.000000)">
                <circle id="Oval-15" fill="#1E392A" cx="23" cy="23" r="23"></circle>
                <path d="M11.1571429,26.5577044 C11.0928571,26.5577044 11.0607143,26.5887646 10.9964286,26.5887646 C10.7071429,26.5887646 10.45,26.4024035 10.3857143,26.1228618 C10.1285714,25.0668156 10,24.0418296 10,22.9857834 C10,22.6441213 10.2892857,22.3645797 10.6428571,22.3645797 C10.9964286,22.3645797 11.2857143,22.6441213 11.2857143,22.9857834 C11.2857143,23.948649 11.4142857,24.8804545 11.6392857,25.81226 C11.7357143,26.1228618 11.5107143,26.4645238 11.1571429,26.5577044 Z M10.8678571,20.5941493 C10.9321429,20.5941493 10.9642857,20.6252095 11.0285714,20.6252095 C11.3178571,20.6252095 11.575,20.4388484 11.6392857,20.1593067 C11.8642857,19.2275012 12.2178571,18.3578161 12.6678571,17.488131 C12.8285714,17.1775291 12.7,16.804807 12.4107143,16.649506 C12.0892857,16.4942051 11.7035714,16.6184459 11.5428571,16.8979875 C11.0285714,17.829793 10.6428571,18.8237188 10.3857143,19.8487049 C10.2892857,20.1903669 10.5142857,20.5320289 10.8678571,20.5941493 Z M13.8571429,15.3449784 C14.05,15.3449784 14.2107143,15.282858 14.3392857,15.1275571 C14.9821429,14.4131729 15.7214286,13.7919692 16.5571429,13.2328859 C16.8464286,13.0465248 16.9107143,12.6427424 16.7178571,12.3632008 C16.525,12.0836591 16.1071429,12.0215388 15.8178571,12.2078999 C14.9178571,12.7980434 14.1142857,13.5124276 13.375,14.2889321 C13.15,14.5374136 13.15,14.941196 13.4392857,15.1586173 C13.5678571,15.3139182 13.7285714,15.3449784 13.8571429,15.3449784 Z M24.9464286,11.2450342 C25.9107143,11.3692749 26.875,11.5866962 27.8071429,11.9283582 C27.8714286,11.9594184 27.9678571,11.9594184 28.0321429,11.9594184 C28.2892857,11.9594184 28.5464286,11.8041175 28.6428571,11.555636 C28.7714286,11.2450342 28.6107143,10.872312 28.2571429,10.7480713 C27.2285714,10.3753491 26.1678571,10.1268676 25.1071429,10.0026269 C24.7535714,9.97156671 24.4321429,10.2200482 24.4,10.53065 C24.3678571,10.9033722 24.5928571,11.213974 24.9464286,11.2450342 Z M18.9357143,11.9904786 C19,11.9904786 19.0964286,11.9904786 19.1607143,11.9594184 C20.0928571,11.6177564 21.025,11.4003351 22.0214286,11.2760944 C22.375,11.2450342 22.6321429,10.9344324 22.5678571,10.5927704 C22.5357143,10.2200482 22.2142857,9.97156671 21.8607143,10.0336871 C20.7678571,10.1579278 19.7071429,10.4064093 18.7107143,10.7791315 C18.3892857,10.9033722 18.1964286,11.2450342 18.325,11.5866962 C18.4214286,11.8351777 18.6785714,11.9904786 18.9357143,11.9904786 Z M35.3607143,20.1282465 C35.425,20.4077882 35.6821429,20.5941493 35.9714286,20.5941493 C36.0357143,20.5941493 36.0678571,20.5941493 36.1321429,20.5630891 C36.4857143,20.4699085 36.6785714,20.1282465 36.6142857,19.8176447 C36.3571429,18.7926587 35.9714286,17.7987328 35.4571429,16.8669273 C35.2964286,16.5563255 34.9107143,16.4320848 34.5892857,16.6184459 C34.2678571,16.804807 34.1392857,17.146469 34.3321429,17.4570708 C34.7821429,18.2956957 35.1357143,19.196441 35.3607143,20.1282465 Z M30.4107143,13.2639461 C31.2142857,13.7919692 31.9535714,14.4442331 32.6285714,15.1586173 C32.7571429,15.282858 32.9178571,15.3760385 33.1107143,15.3760385 C33.2714286,15.3760385 33.4,15.3139182 33.5285714,15.2207376 C33.7857143,15.0033163 33.8178571,14.599534 33.5928571,14.3510525 C32.8857143,13.5745479 32.05,12.8601637 31.15,12.2700202 C30.8607143,12.0836591 30.4428571,12.1457795 30.25,12.4253212 C30.0571429,12.6738026 30.1214286,13.0465248 30.4107143,13.2639461 Z M19.1607143,34.0121483 C18.2285714,33.6704863 17.3607143,33.2356437 16.5571429,32.6765604 C16.2678571,32.4901993 15.85,32.5523197 15.6571429,32.8318613 C15.4642857,33.111403 15.5285714,33.5151854 15.8178571,33.7015465 C16.7178571,34.2916899 17.6821429,34.7886529 18.7107143,35.1613751 C18.775,35.1924352 18.8714286,35.1924352 18.9357143,35.1924352 C19.1928571,35.1924352 19.45,35.0371343 19.5464286,34.7886529 C19.6428571,34.478051 19.4821429,34.136389 19.1607143,34.0121483 Z M36.3571429,22.3335195 L36.3571429,22.3335195 C36.0035714,22.3335195 35.7142857,22.6130612 35.7142857,22.9547232 L35.7142857,22.9857834 C35.7142857,23.948649 35.5857143,24.8804545 35.3607143,25.81226 C35.2642857,26.153922 35.4892857,26.495584 35.8428571,26.5577044 C35.9071429,26.5577044 35.9392857,26.5887646 36.0035714,26.5887646 C36.2928571,26.5887646 36.55,26.4024035 36.6142857,26.1228618 C36.8714286,25.0978758 37,24.0728898 37,22.9857834 L37,22.9547232 C37,22.6130612 36.7107143,22.3335195 36.3571429,22.3335195 Z M24.9464286,34.6954723 C24.4642857,34.7575927 23.9821429,34.7886529 23.4678571,34.7886529 C22.9857143,34.7886529 22.5035714,34.7575927 22.0214286,34.6954723 C21.6678571,34.6644121 21.3464286,34.8818334 21.3142857,35.2234954 C21.2821429,35.5651574 21.5071429,35.8757593 21.8607143,35.9068195 C22.4071429,35.9689398 22.9214286,36 23.5,36 C24.0464286,36 24.5928571,35.9689398 25.1071429,35.9068195 C25.4607143,35.8757593 25.7178571,35.5651574 25.6535714,35.2234954 C25.6214286,34.8818334 25.3,34.6644121 24.9464286,34.6954723 Z M12.6678571,28.4523755 C12.5071429,28.1417737 12.1214286,28.017533 11.8,28.2038941 C11.4785714,28.359195 11.35,28.7319172 11.5428571,29.042519 C12.0571429,29.9743245 12.6678571,30.8440096 13.4071429,31.6205142 C13.5357143,31.7447549 13.6964286,31.8379355 13.8892857,31.8379355 C14.05,31.8379355 14.1785714,31.7758151 14.3071429,31.6826346 C14.5642857,31.4652133 14.5964286,31.0614309 14.3714286,30.8129495 C13.6964286,30.0675051 13.15,29.2910005 12.6678571,28.4523755 Z M28.2571429,33.8257872 C28.0964286,33.8879076 27.9678571,33.9500279 27.8071429,34.0121483 C27.4857143,34.136389 27.2928571,34.478051 27.4214286,34.819713 C27.5178571,35.0681945 27.775,35.2234954 28.0321429,35.2234954 C28.0964286,35.2234954 28.1928571,35.2234954 28.2571429,35.1924352 C28.5464286,35.0992547 28.8357143,34.975014 29.125,34.8507732 C28.8035714,34.5401714 28.5142857,34.1985094 28.2571429,33.8257872 Z M23.5,34.1674492 C25.0428571,34.1674492 26.5535714,33.8568474 27.9678571,33.2977641 C27.775,32.9250419 27.6785714,32.5212595 27.5821429,32.086417 C26.2964286,32.6144401 24.9142857,32.8939817 23.5,32.8939817 C23.5,32.8939817 23.5,32.8939817 23.4678571,32.8939817 C20.7357143,32.8939817 18.1321429,31.8379355 16.2035714,29.9743245 C14.275,28.0796534 13.2142857,25.5948387 13.2142857,22.9547232 C13.2142857,20.3146076 14.3071429,17.7987328 16.2357143,15.9351218 C18.1642857,14.0715109 20.7678571,13.0465248 23.5,13.0465248 L23.5321429,13.0465248 C26.2642857,13.0465248 28.8678571,14.102571 30.7964286,15.966182 C32.725,17.8608532 33.7857143,20.3456678 33.7857143,22.9857834 C33.7857143,24.290311 33.5285714,25.5637785 33.0142857,26.7440655 C33.4642857,26.8061859 33.8821429,26.9304266 34.2678571,27.0857275 C34.7821429,25.81226 35.0714286,24.4145518 35.0714286,22.9857834 C35.0714286,20.0040058 33.8821429,17.1775291 31.6964286,15.0654367 C29.5107143,12.9533443 26.6178571,11.8041175 23.5321429,11.8041175 C23.5321429,11.8041175 23.5321429,11.8041175 23.5,11.8041175 C20.4142857,11.8041175 17.5214286,12.9533443 15.3357143,15.0654367 C13.15,17.146469 11.9285714,19.9729456 11.9285714,22.9547232 C11.9285714,25.9365007 13.1178571,28.7629774 15.3035714,30.8750698 C17.4892857,32.9871623 20.3821429,34.136389 23.5,34.1674492 L23.5,34.1674492 Z M36.3571429,31.3720327 C36.3571429,33.5151854 34.5571429,35.2545556 32.3392857,35.2545556 C30.1214286,35.2545556 28.3214286,33.5151854 28.3214286,31.3720327 C28.3214286,29.2288801 30.1214286,27.4895099 32.3392857,27.4895099 C34.5571429,27.4895099 36.3571429,29.2288801 36.3571429,31.3720327 Z M34.75,30.7508291 L32.9821429,30.7508291 L32.9821429,29.042519 C32.9821429,28.700857 32.6928571,28.4213154 32.3392857,28.4213154 C31.9857143,28.4213154 31.6964286,28.700857 31.6964286,29.042519 L31.6964286,30.7508291 L29.9285714,30.7508291 C29.575,30.7508291 29.2857143,31.0303707 29.2857143,31.3720327 C29.2857143,31.7136948 29.575,31.9932364 29.9285714,31.9932364 L31.6964286,31.9932364 L31.6964286,33.7015465 C31.6964286,34.0432085 31.9857143,34.3227501 32.3392857,34.3227501 C32.6928571,34.3227501 32.9821429,34.0432085 32.9821429,33.7015465 L32.9821429,31.9932364 L34.75,31.9932364 C35.1035714,31.9932364 35.3928571,31.7136948 35.3928571,31.3720327 C35.3928571,31.0303707 35.1035714,30.7508291 34.75,30.7508291 Z M27.3892857,17.6123717 C27.3892857,17.1775291 27.0035714,16.804807 26.5535714,16.804807 L20.4464286,16.804807 C19.9964286,16.804807 19.6107143,17.1775291 19.6107143,17.6123717 C19.6107143,18.0472143 19.9964286,18.4199365 20.4464286,18.4199365 C21.5392857,18.4199365 22.5357143,18.8858392 23.0178571,19.5381031 L20.4464286,19.5381031 C19.9964286,19.5381031 19.6107143,19.9108252 19.6107143,20.3456678 C19.6107143,20.7805104 19.9964286,21.1532326 20.4464286,21.1532326 L23.2107143,21.1532326 C22.7928571,21.9297371 21.7,22.5198806 20.4464286,22.5198806 C20.125,22.5198806 19.8357143,22.7062417 19.675,22.9857834 C19.5464286,23.265325 19.5785714,23.606987 19.8035714,23.8554685 L24.3357143,28.9182783 C24.4964286,29.1046394 24.7214286,29.1978199 24.9785714,29.1978199 C25.1714286,29.1978199 25.3642857,29.1356996 25.525,29.0114588 C25.8785714,28.7319172 25.9107143,28.2038941 25.6214286,27.8622321 L22.0857143,23.8865287 C23.5642857,23.4516861 24.6892857,22.3956399 24.9785714,21.1221724 L26.5535714,21.1221724 C27.0035714,21.1221724 27.3892857,20.7494502 27.3892857,20.3146076 C27.3892857,19.8797651 27.0035714,19.5070429 26.5535714,19.5070429 L24.8821429,19.5070429 C24.7535714,19.1032605 24.5285714,18.7305383 24.2714286,18.3888763 L26.5535714,18.3888763 C27.0035714,18.4199365 27.3892857,18.0472143 27.3892857,17.6123717 Z" id="Shape" fill="#3DE689"></path>
            </g>
        </g>
    </g>
</svg>