<?xml version="1.0" encoding="UTF-8"?>
<svg width="19px" height="18px" viewBox="0 0 19 18" version="1.1" xmlns="http://www.w3.org/2000/svg" xmlns:xlink="http://www.w3.org/1999/xlink">
    <!-- Generator: sketchtool 41.2 (35397) - http://www.bohemiancoding.com/sketch -->
    <title>18C51462-930B-49F8-9F52-58C86E40CB4F</title>
    <desc>Created with sketchtool.</desc>
    <defs></defs>
    <g id="Page-1" stroke="none" stroke-width="1" fill="none" fill-rule="evenodd" opacity="0.5">
        <g id="Table-basic-version" transform="translate(-240.000000, -822.000000)" fill="#FFFFFF">
            <g id="Group-15-Copy-8" transform="translate(0.000000, 813.000000)">
                <path d="M249.592896,9.3986375 C254.539977,9.3986375 258.54843,12.6614179 258.54843,16.6862971 C258.54843,19.0193326 257.149903,20.923746 255.053587,22.2576135 L256.801008,26.3986375 L251.9956,23.7832539 C251.342349,23.906591 250.292323,23.9671589 249.592896,23.9671589 C244.645816,23.9671589 240.637363,20.7111807 240.637363,16.6862993 C240.637363,12.6614179 244.645816,9.39863968 249.592897,9.39863968 L249.592896,9.3986375 Z M254.398304,15.5012014 C253.795138,15.5012014 253.306166,15.9891012 253.306166,16.5909446 C253.306166,17.192788 253.795138,17.6806921 254.398304,17.6806921 C255.001471,17.6806921 255.490443,17.192788 255.490443,16.5909446 C255.490443,15.9891012 255.001471,15.5012014 254.398304,15.5012014 Z M249.592896,15.5012014 C248.989731,15.5012014 248.500758,15.9891012 248.500758,16.5909446 C248.500758,17.192788 248.989731,17.6806921 249.592896,17.6806921 C250.196062,17.6806921 250.685035,17.192788 250.685035,16.5909446 C250.685035,15.9891012 250.196062,15.5012014 249.592896,15.5012014 Z M244.787488,15.5012014 C244.184323,15.5012014 243.695349,15.9891012 243.695349,16.5909446 C243.695349,17.192788 244.184322,17.6806921 244.787488,17.6806921 C245.390654,17.6806921 245.879626,17.192788 245.879626,16.5909446 C245.879626,15.9891012 245.390654,15.5012014 244.787488,15.5012014 Z" id="Chat"></path>
            </g>
        </g>
    </g>
</svg>