<?xml version="1.0" encoding="UTF-8"?>
<svg width="46px" height="46px" viewBox="0 0 46 46" version="1.1" xmlns="http://www.w3.org/2000/svg" xmlns:xlink="http://www.w3.org/1999/xlink">
    <!-- Generator: sketchtool 41.2 (35397) - http://www.bohemiancoding.com/sketch -->
    <title>D1A0EF51-1390-4F3E-8F25-14ABDCFE59D5</title>
    <desc>Created with sketchtool.</desc>
    <defs></defs>
    <g id="Page-1" stroke="none" stroke-width="1" fill="none" fill-rule="evenodd">
        <g id="Table-basic-version" transform="translate(-1374.000000, -167.000000)">
            <g id="Close" transform="translate(1374.000000, 167.000000)">
                <circle id="Oval-15-Copy" fill-opacity="0.231119792" fill="#FF6B7D" cx="23" cy="23" r="23"></circle>
                <path d="M21.4429105,22.5035707 L13.2196699,14.2803301 C12.9267767,13.9874369 12.9267767,13.5125631 13.2196699,13.2196699 C13.5125631,12.9267767 13.9874369,12.9267767 14.2803301,13.2196699 L22.5035707,21.4429105 L30.7268113,13.2196699 C31.0197045,12.9267767 31.4945783,12.9267767 31.7874715,13.2196699 C32.0803647,13.5125631 32.0803647,13.9874369 31.7874715,14.2803301 L23.5642309,22.5035707 L31.7874715,30.7268113 C32.0803647,31.0197045 32.0803647,31.4945783 31.7874715,31.7874715 C31.4945783,32.0803647 31.0197045,32.0803647 30.7268113,31.7874715 L22.5035707,23.5642309 L14.2803301,31.7874715 C13.9874369,32.0803647 13.5125631,32.0803647 13.2196699,31.7874715 C12.9267767,31.4945783 12.9267767,31.0197045 13.2196699,30.7268113 L21.4429105,22.5035707 Z" id="Combined-Shape" fill="#F9334B"></path>
            </g>
        </g>
    </g>
</svg>