<?xml version="1.0" encoding="UTF-8"?>
<svg width="26px" height="26px" viewBox="0 0 26 26" version="1.1" xmlns="http://www.w3.org/2000/svg" xmlns:xlink="http://www.w3.org/1999/xlink">
    <!-- Generator: sketchtool 41.2 (35397) - http://www.bohemiancoding.com/sketch -->
    <title>E391AF6F-ADBE-4C57-97F6-4E0C3CE06E22</title>
    <desc>Created with sketchtool.</desc>
    <defs>
        <radialGradient cx="49.9998964%" cy="50.000069%" fx="49.9998964%" fy="50.000069%" r="50.000069%" id="radialGradient-1">
            <stop stop-color="#F8EBB5" offset="58.18%"></stop>
            <stop stop-color="#EDE69D" offset="64.41%"></stop>
            <stop stop-color="#D9DE72" offset="76.57%"></stop>
            <stop stop-color="#CAD94D" offset="86.99%"></stop>
            <stop stop-color="#C1D737" offset="95.13%"></stop>
            <stop stop-color="#BED630" offset="100%"></stop>
        </radialGradient>
    </defs>
    <g id="Page-1" stroke="none" stroke-width="1" fill="none" fill-rule="evenodd">
        <g id="Table-basic-version" transform="translate(-720.000000, -632.000000)">
            <g id="Coin" transform="translate(720.000000, 632.000000)">
                <g id="Group">
                    <path d="M13.4096564,25.9168179 C13.5000756,25.9140481 13.5902268,25.9108316 13.6800206,25.9061856 C13.7003024,25.9051134 13.7201375,25.9035945 13.7402405,25.9023436 C13.8332509,25.8971615 13.9261718,25.891354 14.0185567,25.8842062 C14.0328522,25.8830447 14.0469691,25.8816151 14.061354,25.8803643 C14.1599931,25.8724124 14.2581856,25.863567 14.35611,25.8534708 C14.3637938,25.8525773 14.371299,25.8515945 14.3789828,25.8508797 C14.4835189,25.8397113 14.5876976,25.8274708 14.6914296,25.8140687 C14.6940206,25.8137113 14.6966117,25.8131753 14.6992027,25.8129072 C15.0289828,25.7697526 15.3550103,25.714 15.6765704,25.6462749 L15.6768385,25.6462749 L15.6839863,24.7182268 C14.8183918,24.8940619 13.921079,24.9876082 13.0010722,24.9876082 C12.0614089,24.9876082 11.1456014,24.8901306 10.2629416,24.706701 L10.2558832,25.6311753 C10.3658694,25.6550309 10.4765704,25.6772784 10.5876289,25.6983643 C10.5885223,25.6984536 10.5894158,25.6986323 10.5903093,25.698811 C10.6987766,25.7192715 10.8077801,25.7382131 10.9171409,25.7560825 C10.9214296,25.7567973 10.9258076,25.7576014 10.9301856,25.7582268 C11.0349003,25.7751134 11.1402405,25.7906598 11.2456701,25.8049553 C11.2549622,25.8062062 11.2639863,25.8075464 11.2732784,25.8087973 C11.3729897,25.8221993 11.4731478,25.8339038 11.5735739,25.8450722 C11.5885842,25.8468591 11.6034158,25.8485567 11.6182474,25.8503436 C11.7123299,25.8602612 11.8065911,25.8689278 11.9011203,25.8768797 C11.9222062,25.878756 11.9432921,25.8809003 11.9644674,25.8825979 C12.053457,25.8896564 12.1429828,25.8951959 12.2324192,25.9004674 C12.2585086,25.9019863 12.2843299,25.9041306 12.3103299,25.9054708 C12.3982474,25.9102062 12.4866117,25.9133333 12.5750653,25.9161031 C12.6021375,25.9169966 12.6289416,25.9184261 12.6560137,25.9193196 C12.770646,25.922268 12.8856357,25.9239656 13.0009828,25.9239656 C13.114543,25.9239656 13.2277457,25.9224467 13.3406804,25.9194089 C13.363732,25.9188729 13.3866048,25.9175326 13.4096564,25.9168179 Z" id="Shape" fill="#BBBDBF"></path>
                    <ellipse id="Oval" fill="url(#radialGradient-1)" cx="13.0010722" cy="12.9841856" rx="12.9397801" ry="12.9397801"></ellipse>
                    <path d="M22.9327148,21.2774708 C23.0040137,21.1921443 23.0743299,21.1060137 23.1433952,21.0189897 C23.1504536,21.010055 23.1573333,21.0009416 23.1643918,20.9919175 C23.2238969,20.9164192 23.2825979,20.8402955 23.3404948,20.7633677 C23.3625636,20.7339725 23.3844536,20.7042199 23.406433,20.674646 C23.4492302,20.6166598 23.4917595,20.5582268 23.5337526,20.4995258 C23.5575189,20.4665567 23.5810172,20.4334089 23.6046048,20.3999931 C23.616488,20.3829278 23.6289966,20.3659519 23.6407904,20.3488866 C23.640701,20.3485292 23.640433,20.3481718 23.6403436,20.3478144 C24.4332096,19.2047079 25.0475601,17.9284742 25.4403299,16.5579794 L23.9771821,15.7216907 C23.4802337,15.4378351 22.8266598,15.6465498 22.5171615,16.1880825 L20.804646,19.1842474 C20.4950584,19.7257801 20.6469485,20.395079 21.1438076,20.6790241 L22.2021237,21.2839038 L22.2021237,22.0813265 C22.368756,21.9127285 22.5303849,21.7389485 22.6877251,21.5614158 L22.6882612,21.5617732 C22.6970172,21.5520344 22.7053265,21.5416701 22.7140825,21.5319313 C22.7732302,21.4645636 22.8315739,21.3967491 22.8895601,21.3282199 C22.903945,21.3111546 22.9185086,21.2943574 22.9327148,21.2774708 Z" id="Shape" fill="#FFFFFF"></path>
                    <path d="M14.627457,22.6592234 L11.351189,22.6339381 C10.7590859,22.6295601 10.2752715,23.1102474 10.2706254,23.707622 L10.2558832,25.6311753 C11.1407766,25.8224674 12.0589966,25.9239656 13.0010722,25.9239656 C13.9185773,25.9239656 14.8133883,25.8278282 15.6768385,25.6462749 L15.6914021,23.7493471 C15.6959588,23.1519725 15.2197388,22.6637801 14.627457,22.6592234 Z" id="Shape" fill="#FFFFFF"></path>
                    <path d="M5.10028866,19.1637869 L3.40394502,16.1944261 C3.09730584,15.6577182 2.43819244,15.457134 1.9315945,15.7466186 L0.554219931,16.5334089 C0.912054983,17.7905223 1.456,18.969189 2.15308591,20.0387629 C2.15299656,20.0387629 2.15290722,20.0389416 2.15281787,20.0390309 C2.15683849,20.0451959 2.16112715,20.0513608 2.16532646,20.0576151 C2.19579381,20.1041649 2.22697595,20.150268 2.25806873,20.1964605 C2.28898282,20.2425636 2.31998625,20.2883986 2.35152577,20.3342337 C2.38065292,20.3761375 2.41004811,20.4180412 2.43953265,20.4594983 C2.47634364,20.5114089 2.51342268,20.5628729 2.55085911,20.6140687 C2.57650172,20.6490034 2.60205498,20.6838488 2.62778694,20.7186942 C2.67585567,20.7831134 2.72454983,20.8468179 2.77360137,20.9100756 C2.79030928,20.9313402 2.8064811,20.9529622 2.823189,20.9741375 C3.078811,21.2996289 3.3492646,21.6127904 3.63446048,21.9119244 L3.74301718,21.2282405 L4.73834364,20.6597251 C5.24485223,20.3702405 5.40692784,19.7006735 5.10028866,19.1637869 Z" id="Shape" fill="#FFFFFF"></path>
                    <ellipse id="Oval" fill="#0E7D3F" cx="13.062543" cy="12.90011" rx="9.42772509" ry="9.45041924"></ellipse>
                    <ellipse id="Oval" fill="#FFFFFF" cx="13.132323" cy="13.132323" rx="7.71565636" ry="7.71565636"></ellipse>
                    <path d="M13.1945979,22.1234089 C7.97476289,22.1234089 3.74319588,17.8918419 3.74319588,12.6720069 C3.74319588,10.9111546 4.22531271,9.26296907 5.06401375,7.85146392 C4.10630241,9.32962199 3.54975945,11.0918144 3.54975945,12.9841856 C3.54975945,18.2040206 7.78114777,22.4354089 13.0010722,22.4354089 C16.4599656,22.4354089 19.4843643,20.5769897 21.1316564,17.8046392 C19.4474639,20.4036564 16.5219725,22.1234089 13.1945979,22.1234089 Z" id="Shape" fill="#F9EE3C"></path>
                    <path d="M13.0010722,21.7526186 C8.16614433,21.7526186 4.23263918,17.8190241 4.23263918,12.9841856 C4.23263918,8.14934708 8.16605498,4.21557388 13.0010722,4.21557388 C17.8360893,4.21557388 21.7695052,8.14925773 21.7695052,12.9841856 C21.7694158,17.8190241 17.836,21.7526186 13.0010722,21.7526186 L13.0010722,21.7526186 Z M13.0010722,4.72646048 C8.44776632,4.72646048 4.74352577,8.43087973 4.74352577,12.9841856 C4.74352577,17.5374914 8.44776632,21.2418213 13.0010722,21.2418213 C17.554378,21.2418213 21.2587079,17.5374914 21.2587079,12.9841856 C21.2587079,8.43087973 17.554378,4.72646048 13.0010722,4.72646048 L13.0010722,4.72646048 Z" id="Shape" fill="#20552A"></path>
                    <path d="M13.0010722,21.5393471 C8.20179381,21.5393471 4.29142955,17.6633814 4.23406873,12.8775052 C4.23353265,12.9130653 4.23263918,12.9485361 4.23263918,12.9841856 C4.23263918,17.8189347 8.16605498,21.7526186 13.0010722,21.7526186 C17.8360893,21.7526186 21.7695052,17.8190241 21.7695052,12.9841856 C21.7695052,12.9485361 21.768701,12.9130653 21.7681649,12.8775052 C21.7107148,17.6633814 17.8002612,21.5393471 13.0010722,21.5393471 Z" id="Shape" fill="#13A049"></path>
                    <path d="M13.0010722,4.513189 C8.44776632,4.513189 4.74352577,8.2175189 4.74352577,12.7710034 C4.74352577,12.8064742 4.74424055,12.841945 4.74477663,12.8775052 C4.8022268,8.37325086 8.48350515,4.72646048 13.0010722,4.72646048 C17.5186392,4.72646048 21.2000069,8.37316151 21.2573677,12.8775052 C21.2578144,12.841945 21.2587079,12.8064742 21.2587079,12.7710034 C21.2587079,8.2175189 17.554378,4.513189 13.0010722,4.513189 Z" id="Shape" fill="#13A049"></path>
                    <path d="M13.0010722,0.0444054983 C12.0715052,0.0444054983 11.1651684,0.143223368 10.2910859,0.329512027 L10.2910859,1.70027491 C10.2910859,2.24332646 10.7710584,2.68336082 11.3631615,2.68336082 L14.6389828,2.68336082 C15.2310859,2.68336082 15.7109691,2.24332646 15.7109691,1.70027491 L15.7109691,0.32942268 C14.8370653,0.143312715 13.9306392,0.0444054983 13.0010722,0.0444054983 Z" id="Shape" fill="#FFFFFF"></path>
                    <path d="M22.3748316,4.06413058 L21.1504192,4.77613746 C20.681079,5.04918213 20.5479519,5.69560825 20.8530722,6.2202543 L22.5408385,9.12242612 C22.8456907,9.64698282 23.4735326,9.85087285 23.9429622,9.57800687 L25.254488,8.81534021 C24.6446048,7.02241237 23.6524055,5.40621306 22.3748316,4.06413058 Z" id="Shape" fill="#FFFFFF"></path>
                    <path d="M3.40394502,16.1944261 C3.09730584,15.6577182 2.43819244,15.457134 1.9315945,15.7466186 L0.554219931,16.5334089 C1.08413746,18.3954021 2.02094158,20.0857595 3.26179381,21.5032509 L4.7382543,20.6597251 C5.24485223,20.3703299 5.40683849,19.7007629 5.10028866,19.1638763 L3.40394502,16.1944261 Z" id="Shape" fill="#FFFFFF"></path>
                    <path d="M4.90917526,4.79356014 L3.63714089,4.05358763 C2.31131959,5.44347079 1.29258419,7.12819931 0.687525773,8.99930584 L2.01343643,9.77072852 C2.50707904,10.0579794 3.16360137,9.84989003 3.47989003,9.30621306 L5.23010997,6.2980756 C5.54648797,5.75439863 5.40281787,5.080811 4.90917526,4.79356014 Z" id="Shape" fill="#FFFFFF"></path>
                    <path d="M2.08196564,12.5261031 C2.08196564,12.5261031 2.15585567,11.9335533 1.7909622,11.9675945 C1.42615808,12.0017251 1.04107216,12.700866 1.04107216,12.700866 C1.04107216,12.700866 1.47753265,13.3692715 1.84367698,13.3757938 C2.21008935,13.3824055 2.09224055,12.7970928 2.09224055,12.7970928 C2.09224055,12.7970928 2.31185567,12.7819931 2.32507904,13.3170928 L2.40629553,13.314055 L2.38145704,12.6504742 L2.3567079,11.9870722 L2.27540206,11.99011 C2.30238488,12.5248522 2.08196564,12.5261031 2.08196564,12.5261031 Z" id="Shape" fill="#0E7D3F"></path>
                    <path d="M7.61085223,3.20121649 C7.61085223,3.20121649 8.16006873,2.9670378 7.94724399,2.66879725 C7.7343299,2.37064605 6.93637113,2.38958763 6.93637113,2.38958763 C6.93637113,2.38958763 6.57826804,3.10293471 6.75678351,3.4227079 C6.93529897,3.74274914 7.38185567,3.3464055 7.38185567,3.3464055 C7.38185567,3.3464055 7.50542268,3.52858419 7.04966323,3.80931271 L7.09317526,3.87802062 L7.65409622,3.52286598 L8.21492784,3.1674433 L8.17141581,3.09882474 C7.72298282,3.39098969 7.61085223,3.20121649 7.61085223,3.20121649 Z" id="Shape" fill="#0E7D3F"></path>
                    <path d="M7.28205498,21.9613333 C7.28205498,21.9613333 6.79002062,21.6227973 6.65215808,21.9621375 C6.51438488,22.3017457 6.95745704,22.9655052 6.95745704,22.9655052 C6.95745704,22.9655052 7.75184192,22.8862543 7.92642612,22.5641581 C8.10109966,22.2419725 7.52713402,22.0768591 7.52713402,22.0768591 C7.52713402,22.0768591 7.61505155,21.8749347 8.09600687,22.1097388 L8.13076289,22.0362955 L7.53043986,21.7526186 L6.93020619,21.4691203 L6.89545017,21.5426529 C7.38221306,21.7651271 7.28205498,21.9613333 7.28205498,21.9613333 Z" id="Shape" fill="#0E7D3F"></path>
                    <path d="M18.5656976,3.38402062 C18.5682887,3.30843299 18.5979519,3.22909278 18.6321718,3.16199313 C18.6470034,3.25830928 18.7049003,3.34712027 18.7972852,3.39715464 C18.9541787,3.48212371 19.1502062,3.42378007 19.2349966,3.2668866 C19.3175533,3.11446048 19.2645704,2.92558076 19.1177732,2.83694845 C19.2089072,2.66558076 19.144756,2.45257732 18.9738351,2.36010309 C18.8029141,2.26753952 18.5896426,2.33052921 18.4959175,2.5005567 C18.3415258,2.42604124 18.1545223,2.48509966 18.0719656,2.63734708 C17.9870859,2.7943299 18.0453402,2.99017869 18.202323,3.07514777 C18.2947079,3.12509278 18.4007629,3.12500344 18.4896632,3.08479725 C18.4520481,3.14993127 18.4019244,3.21828179 18.3400069,3.26161512 C18.1906186,3.3663299 17.8083024,3.2224811 17.8083024,3.2224811 L17.7781924,3.27832302 L18.3186529,3.57075601 L18.8591134,3.863189 L18.8894021,3.80743643 C18.8893127,3.80770447 18.55989,3.56637801 18.5656976,3.38402062 Z" id="Shape" fill="#0E7D3F"></path>
                    <path d="M23.8092096,12.781457 C23.8743436,12.7428591 23.9572577,12.7254364 24.0322199,12.71811 C23.958866,12.7824399 23.9149966,12.8789347 23.9225911,12.9837388 C23.9355464,13.1616289 24.0899381,13.2955601 24.2679175,13.2827835 C24.4408935,13.2702749 24.5715189,13.1241924 24.5672302,12.9527354 C24.760756,12.937457 24.9057663,12.7687698 24.8919175,12.5749759 C24.8780687,12.3809141 24.7101856,12.2350103 24.5166598,12.2476082 C24.496378,12.0773127 24.3460069,11.9513333 24.1731203,11.9635739 C23.9951409,11.9765292 23.8613883,12.1308316 23.8740756,12.308811 C23.8816701,12.4137938 23.9388522,12.5030515 24.0205155,12.5563024 C23.9453746,12.5597869 23.8607629,12.5544261 23.7908935,12.5253883 C23.6222955,12.4556976 23.5379519,12.0560481 23.5379519,12.0560481 L23.4746048,12.0606942 L23.5187423,12.6736151 L23.562701,13.2865361 L23.6259588,13.2819794 C23.6260481,13.2819794 23.6524948,12.8745567 23.8092096,12.781457 Z" id="Shape" fill="#0E7D3F"></path>
                    <path d="M18.2968522,22.1403849 C18.3632371,22.1764811 18.4207766,22.2386667 18.4655395,22.299244 C18.3727973,22.2692234 18.2673677,22.2813746 18.1812371,22.3413265 C18.0349759,22.4437182 17.9994158,22.6449278 18.1015395,22.7912784 C18.2008041,22.9332509 18.3935258,22.9705979 18.5384467,22.8789278 C18.650756,23.0371615 18.8698351,23.0753127 19.0290515,22.9640756 C19.1886254,22.8526598 19.2278488,22.6337595 19.1176838,22.4738282 C19.2535808,22.3692921 19.2846735,22.1754089 19.1854983,22.0336151 C19.0831065,21.8872646 18.8820756,21.8515258 18.7357251,21.9537388 C18.6495052,22.0140481 18.6021512,22.1088454 18.5983093,22.2062337 C18.5568522,22.1434227 18.5182543,22.0679244 18.5071753,21.9932302 C18.4805498,21.8126598 18.7803986,21.5354158 18.7803986,21.5354158 L18.743945,21.4833265 L18.2403849,21.8354433 L17.736646,22.1876495 L17.772921,22.2394708 C17.7730103,22.2396495 18.1364742,22.0533608 18.2968522,22.1403849 Z" id="Shape" fill="#0E7D3F"></path>
                    <polygon id="Shape" fill="#F8EB32" points="12.9731065 0.660185567 12.3927973 1.32698282 12.9731065 2.0676701 13.5534158 1.32698282"></polygon>
                    <path d="M13.2911821,23.3438007 C13.0645979,23.3438007 12.96989,23.5287491 12.96989,23.5287491 C12.96989,23.5287491 12.8751821,23.3438007 12.6486873,23.3438007 C12.5413814,23.3438007 12.2496632,23.3931203 12.3606323,23.7841031 C12.464543,24.149354 12.9698007,24.5330997 12.9698007,24.5330997 C12.9698007,24.5330997 13.4751478,24.149354 13.5788797,23.7841031 C13.6902062,23.3931203 13.3983986,23.3438007 13.2911821,23.3438007 Z" id="Shape" fill="#F8EB32"></path>
                    <path d="M22.3010309,6.95468729 C22.4327285,7.13901031 22.6384055,7.10854296 22.6384055,7.10854296 C22.6384055,7.10854296 22.5427148,7.29313402 22.6744124,7.47763574 C22.7365979,7.56492784 22.9463849,7.77364261 23.2000412,7.45601375 C23.4369003,7.1592921 23.4556632,6.52501718 23.4556632,6.52501718 C23.4556632,6.52501718 22.849622,6.33676289 22.4922337,6.46443986 C22.1093814,6.60123024 22.2386667,6.86730584 22.3010309,6.95468729 Z" id="Shape" fill="#F8EB32"></path>
                    <path d="M3.33193127,7.64846735 C3.44674227,7.45315464 3.33514777,7.27767698 3.33514777,7.27767698 C3.33514777,7.27767698 3.54270103,7.29009622 3.65760137,7.09460481 C3.7119244,7.00221993 3.8172646,6.72569072 3.42386942,6.62338832 C3.05647423,6.52769759 2.46955326,6.76866667 2.46955326,6.76866667 C2.46955326,6.76866667 2.54415808,7.39883162 2.80639175,7.67339519 C3.08703093,7.96752577 3.27760825,7.74103093 3.33193127,7.64846735 Z" id="Shape" fill="#F8EB32"></path>
                    <polygon id="Shape" fill="#F8EB32" points="23.5010515 18.6914089 23.2969828 17.8314433 22.3567835 17.8719175 22.6212509 18.7750378"></polygon>
                    <polygon id="Shape" fill="#F8EB32" points="2.33258419 18.6914089 2.53683162 17.8314433 3.47694158 17.8719175 3.21247423 18.7750378"></polygon>
                    <polygon id="Shape" fill="#8CC541" points="13.0459244 1.97474914 12.538433 1.32698282 13.0459244 0.743725086 12.9731065 0.660185567 12.3927973 1.32698282 12.9731065 2.0676701"></polygon>
                    <path d="M12.5064467,23.7841031 C12.4159381,23.4659381 12.5922199,23.3740893 12.7187354,23.3507698 C12.6968454,23.3467491 12.6737938,23.3438007 12.6487766,23.3438007 C12.5414708,23.3438007 12.2497526,23.3931203 12.3607216,23.7841031 C12.4646323,24.149354 12.96989,24.5330997 12.96989,24.5330997 C12.96989,24.5330997 12.9984811,24.5113883 13.0427079,24.4739519 C12.8993058,24.3528866 12.5857869,24.0634021 12.5064467,23.7841031 Z" id="Shape" fill="#8CC541"></path>
                    <path d="M22.6384055,7.10854296 C22.6384055,7.10854296 22.5427148,7.29313402 22.6744124,7.47763574 C22.7188179,7.54 22.8386323,7.66312027 22.9957045,7.61353265 C22.9118076,7.58628179 22.8492646,7.51864605 22.8199588,7.47763574 C22.6882612,7.29322337 22.7840412,7.10854296 22.7840412,7.10854296 C22.7840412,7.10854296 22.5783643,7.13909966 22.4466667,6.95468729 C22.3843918,6.86730584 22.2549278,6.60123024 22.6378694,6.46443986 C22.7097938,6.4388866 22.7917251,6.42628866 22.8766942,6.42208935 C22.7416014,6.41547766 22.6047216,6.42432302 22.492323,6.46443986 C22.1094708,6.60123024 22.238756,6.86739519 22.3010309,6.95468729 C22.4326392,7.13901031 22.6384055,7.10854296 22.6384055,7.10854296 Z" id="Shape" fill="#8CC541"></path>
                    <path d="M2.61527835,6.76866667 C2.61527835,6.76866667 2.96721649,6.62463918 3.29681787,6.60391065 C2.93531959,6.578 2.46964261,6.76866667 2.46964261,6.76866667 C2.46964261,6.76866667 2.54424742,7.39883162 2.8064811,7.67339519 C2.94398625,7.81751203 3.05969072,7.83627491 3.14850172,7.80741581 C3.0894433,7.7893677 3.02368385,7.74853608 2.95211684,7.67339519 C2.68970447,7.39883162 2.61527835,6.76866667 2.61527835,6.76866667 Z" id="Shape" fill="#8CC541"></path>
                    <polygon id="Shape" fill="#8CC541" points="23.298323 17.8376976 23.2969828 17.8314433 22.3567835 17.8719175 22.6212509 18.7750378 22.7629553 18.7615464 22.5024192 17.8719175"></polygon>
                    <polygon id="Shape" fill="#8CC541" points="2.68094845 17.8376976 2.53683162 17.8314433 2.33258419 18.6914089 3.21247423 18.7750378 3.2164055 18.7615464 2.47813058 18.6914089"></polygon>
                    <path d="M13.344433,23.347732 C13.0824674,23.37537 12.96989,23.5890882 12.96989,23.5890882 L13.0289782,23.6541329 C13.0289782,23.654252 13.1674066,23.3862108 13.344433,23.347732 Z" id="Shape" fill="#929497"></path>
                </g>
                <path d="M10.2891566,11.1428571 L10.0240964,11.9747899 L13.060241,11.9747899 C12.9879518,12.289916 12.8192771,12.5420168 12.5662651,12.7310924 C12.1927711,13.0084034 11.626506,13.1470588 10.8674699,13.1470588 L10.1204819,13.1470588 L10.1204819,14.1302521 C10.3855422,14.1302521 10.6506024,14.2184874 10.8915663,14.394958 C11.1084337,14.5462185 11.313253,14.7478992 11.5060241,15.0252101 L13.6626506,18 L15.5783133,18 L12.9759036,14.5714286 C12.7108434,14.2184874 12.5301205,13.9915966 12.4337349,13.9159664 C13.0722892,13.7647059 13.5783133,13.487395 13.9638554,13.0840336 C14.2289157,12.7815126 14.4096386,12.4033613 14.4819277,11.9747899 L15.7349398,11.9747899 L16,11.1428571 L14.5060241,11.1428571 C14.4578313,10.6260504 14.3012048,10.1848739 14.0481928,9.83193277 L15.7228916,9.83193277 L15.9879518,9 L10.2650602,9 L10,9.83193277 L11.2891566,9.83193277 C11.8795181,9.83193277 12.3253012,9.95798319 12.6385542,10.2352941 C12.8795181,10.4495798 13.0240964,10.7521008 13.0843373,11.1428571 L10.2891566,11.1428571 Z" id="₹" fill="#0E7D3F"></path>
            </g>
        </g>
    </g>
</svg>