<?xml version="1.0" encoding="UTF-8"?>
<svg width="43px" height="84px" viewBox="0 0 43 84" version="1.1" xmlns="http://www.w3.org/2000/svg" xmlns:xlink="http://www.w3.org/1999/xlink">
    <!-- Generator: sketchtool 41.2 (35397) - http://www.bohemiancoding.com/sketch -->
    <title>55863DBB-D134-456F-BD79-791DBFB40E25</title>
    <desc>Created with sketchtool.</desc>
    <defs></defs>
    <g id="Page-1" stroke="none" stroke-width="1" fill="none" fill-rule="evenodd">
        <g id="Table-basic-version" transform="translate(-459.000000, -940.000000)">
            <g id="Expand" transform="translate(480.000000, 982.500000) scale(-1, 1) translate(-480.000000, -982.500000) translate(459.000000, 941.000000)">
                <path d="M-0.5,83 L-0.5,83 C22.4198171,83 41,64.4198171 41,41.5 C41,18.5801829 22.4198171,0 -0.5,0" id="Oval-10" stroke="#3DE689" stroke-width="2" fill="#232324"></path>
                <path d="M21.2,28.4001084 L21.2,53.6020588 C21.2,54.3737721 21.8283465,55.0021672 22.6,55.0021672 C23.3716535,55.0021672 24,54.3737721 24,53.6020588 L24,28.4001084 C24,27.6283951 23.3716535,27 22.6,27 C21.8283465,27 21.2,27.6283951 21.2,28.4001084 Z M18.4,53.6020588 L18.4,28.4001084 C18.4,27.6283951 17.7716535,27 17,27 C16.2283465,27 15.6,27.6283951 15.6,28.4001084 L15.6,53.6020588 C15.6,54.3737721 16.2283465,55.0021672 17,55.0021672 C17.7716535,55.0021672 18.4,54.3737721 18.4,53.6020588 Z M12.8,53.6020588 L12.8,28.4001084 C12.8,27.6283951 12.1716535,27 11.4,27 C10.6283465,27 10,27.6283951 10,28.4001084 L10,53.6020588 C10,54.3737721 10.6283465,55.0021672 11.4,55.0021672 C12.1716535,55.0021672 12.8,54.3737721 12.8,53.6020588 Z M26.8,37.3630068 L26.8,44.6391604 C26.8,45.1407741 27.4007874,45.3888247 27.7535433,45.0360415 L30.8346457,41.3979647 C31.0551181,41.1774752 31.0551181,40.824692 30.8346457,40.6042025 L27.7535433,36.9661256 C27.4007874,36.6133424 26.8,36.8613931 26.8,37.3630068 Z" id="Combined-Shape" fill="#FFFFFF"></path>
            </g>
        </g>
    </g>
</svg>