<?xml version="1.0" encoding="UTF-8"?>
<svg width="21px" height="17px" viewBox="0 0 21 17" version="1.1" xmlns="http://www.w3.org/2000/svg" xmlns:xlink="http://www.w3.org/1999/xlink">
    <!-- Generator: sketchtool 41.2 (35397) - http://www.bohemiancoding.com/sketch -->
    <title>16CD64E2-6455-4E6D-9844-7F4182F63FEE</title>
    <desc>Created with sketchtool.</desc>
    <defs></defs>
    <g id="Page-1" stroke="none" stroke-width="1" fill="none" fill-rule="evenodd">
        <g id="Table-basic-version" transform="translate(-143.000000, -824.000000)">
            <g id="Graph" transform="translate(143.000000, 824.000000)">
                <path d="M0.212595506,16.9571408 L0.212595506,1.02820353 C0.212595506,0.471053615 0.653797455,0.0193943662 1.20938509,0.0193943662 L0.964232883,0.0193943662 C1.51474457,0.0193943662 1.96102247,0.4732156 1.96102247,1.01433105 L1.96102247,15.1831549 L19.475366,15.1831549 C20.0249727,15.1831549 20.4705169,15.6308065 20.4705169,16.1738809 L20.4705169,15.9664149 C20.4705169,16.5135777 20.0129763,16.9571408 19.475366,16.9571408 L1.96102247,16.9571408 L0.212595506,16.9571408 Z" id="Shape" fill="#8E8E8F"></path>
                <path d="M6.64614607,8.64461972 L5.1775618,7.11198592 C4.70895506,7.378 4.13204494,7.37105634 3.66697753,7.09067606 C2.94660674,6.65777465 2.709,5.71415493 3.13914607,4.98339437 C3.56905618,4.25598592 4.49588764,4.01487324 5.21602247,4.44753521 C5.9361573,4.88402817 6.17046067,5.82764789 5.74385393,6.55505634 L7.0864382,7.95647887 L8.18433708,6.24642254 C7.84149438,5.85614085 7.71573034,5.31692958 7.85211236,4.81315493 C8.07249438,3.99715493 8.90801124,3.51109859 9.71544944,3.73808451 C10.5195843,3.96171831 10.9952697,4.80956338 10.7748876,5.62891549 L12.9810674,6.94533803 C13.4112135,6.51602817 14.0511236,6.38457746 14.6070337,6.61539437 L17.5472697,2.64170423 C17.2152809,2.20880282 17.1350562,1.63056338 17.3342022,1.12319718 C17.645427,0.332098592 18.5264831,-0.051 19.3060787,0.264577465 C20.0823708,0.580394366 20.4598989,1.47804225 20.1453708,2.26219718 C19.8374494,3.05329577 18.9528539,3.43639437 18.1767978,3.1208169 L15.2363258,7.09402817 C15.5333933,7.4773662 15.6315506,7.97730986 15.5055506,8.44588732 C15.2818652,9.26547887 14.4496517,9.74794366 13.6422135,9.52430986 C12.8345393,9.29756338 12.3590899,8.45307042 12.5827753,7.63347887 L10.3765955,6.31729577 C9.97122472,6.72170423 9.38369663,6.86009859 8.84524719,6.68267606 L7.6461236,8.54190141 L11.1318876,12.1818169 L17.960191,9.73740845 C17.9179551,9.19101408 18.1661798,8.66592958 18.6104831,8.35370423 C19.3027753,7.87483099 20.2430562,8.05225352 20.7152022,8.75116901 C21.1908876,9.45367606 21.015809,10.407831 20.3270562,10.8905352 C19.6380674,11.3696479 18.6942472,11.1922254 18.2185618,10.4933099 L10.9218876,13.1077183 L7.20889888,9.22980282 L6.37314607,10.528507 C6.73344944,10.936507 6.85213483,11.5075634 6.68437079,12.0292958 C6.42552809,12.8347606 5.57255056,13.2781972 4.7717191,13.0155352 C3.97796629,12.7528732 3.54451685,11.8837183 3.80335955,11.0751408 C4.06220225,10.2696761 4.9187191,9.826 5.71247191,10.0922535 L6.64614607,8.64461972 Z" id="Shape" fill="#8E8E8F"></path>
                <path d="M8.84501124,6.74594366 L8.18433708,6.24594366" id="Shape" fill="#000000"></path>
            </g>
        </g>
    </g>
</svg>