<?xml version="1.0" encoding="UTF-8"?>
<svg width="19px" height="20px" viewBox="0 0 19 20" version="1.1" xmlns="http://www.w3.org/2000/svg" xmlns:xlink="http://www.w3.org/1999/xlink">
    <!-- Generator: sketchtool 41.2 (35397) - http://www.bohemiancoding.com/sketch -->
    <title>8BF5B645-E860-4F89-856A-77837C9AAD09</title>
    <desc>Created with sketchtool.</desc>
    <defs></defs>
    <g id="Page-1" stroke="none" stroke-width="1" fill="none" fill-rule="evenodd">
        <g id="Table-basic-version" transform="translate(-51.000000, -822.000000)" fill="#3DE689">
            <path d="M62.2440938,828.419167 L57.4281929,828.730461 C57.3836933,828.733166 57.3476111,828.76753 57.3427397,828.811845 L56.3925809,837.705086 L55.9958337,841.342953 C55.9575166,841.682546 55.670232,841.939175 55.3284845,841.939091 L53.9917516,841.939091 C53.6500041,841.939175 53.3627195,841.682546 53.3244024,841.342953 L52.4698699,833.562638 C51.9450993,833.370409 51.574585,832.897412 51.5136074,832.341878 L51.0110609,828.559554 C50.9554042,828.069331 51.1115238,827.578646 51.4402183,827.21071 C51.7689128,826.842774 52.2389607,826.632536 52.7323335,826.632787 L53.3691636,826.632787 C53.3947056,826.633097 53.4186973,826.645093 53.4342709,826.66534 L54.4942981,827.989866 C54.5326479,828.041902 54.5934426,828.072618 54.6580835,828.072618 C54.7227243,828.072618 54.7835191,828.041902 54.8218689,827.989866 L55.8839307,826.66534 C55.8997185,826.645612 55.9237745,826.634336 55.9490379,826.634821 L56.8483316,826.651098 L62.2847859,827.00105 C62.4783299,827.013744 62.658257,827.105059 62.782767,827.253779 C62.907277,827.402499 62.9655314,827.59568 62.9439966,827.78844 C62.8924987,828.139515 62.598616,828.404351 62.2440938,828.419167 L62.2440938,828.419167 Z M52.6265342,824.046809 C52.6265342,825.17723 53.5429217,826.093617 54.673343,826.093617 C55.8037642,826.093617 56.7201517,825.17723 56.7201517,824.046809 C56.7201517,822.916387 55.8037642,822 54.673343,822 C53.5429217,822 52.6265342,822.916387 52.6265342,824.046809 L52.6265342,824.046809 Z M67.3875655,830.221823 C67.3026726,830.221778 67.2213949,830.256183 67.162333,830.317162 C67.1032711,830.378142 67.0714807,830.460477 67.0742369,830.545325 L67.0742369,832.842389 C67.0742352,832.925843 67.1075256,833.005849 67.1667269,833.064669 C67.2259282,833.123488 67.3061483,833.15626 67.3896001,833.155718 L69.6866648,833.155718 C69.7701184,833.15572 69.8501247,833.122429 69.908944,833.063228 C69.9677634,833.004027 70.0005353,832.923807 69.9999934,832.840355 C70.0010734,832.146604 69.726378,831.480868 69.2363941,830.989739 C68.7464103,830.498611 68.0813171,830.222362 67.3875655,830.221823 L67.3875655,830.221823 Z M66.0915246,836.659301 C67.5309034,836.720824 68.7547797,835.619064 68.8443399,834.181157 C68.8460188,834.138204 68.829975,834.096449 68.7999668,834.065671 C68.7699587,834.034893 68.7286225,834.017798 68.685641,834.018389 L66.4028186,834.026527 C66.3522833,834.027071 66.3036306,834.007376 66.2677041,833.971831 C66.2317776,833.936287 66.2115631,833.887848 66.2115661,833.837309 L66.1993584,831.562625 C66.1999803,831.519274 66.1826092,831.477603 66.1513792,831.44753 C66.1201491,831.417457 66.0778528,831.40167 66.0345558,831.403926 C64.6837236,831.55303 63.6657234,832.701583 63.6799066,834.060545 C63.6940898,835.419507 64.7358401,836.546562 66.08949,836.66744 L66.0915246,836.659301 Z M62.9439966,830.496494 L59.2491609,830.496494 C58.8907073,830.496494 58.6001232,830.787078 58.6001232,831.145532 C58.6001232,831.503986 58.8907073,831.79457 59.2491609,831.79457 L62.9439966,831.79457 C63.1841767,831.808033 63.4121039,831.68755 63.5362498,831.481503 C63.6603958,831.275455 63.6603958,831.017643 63.5362498,830.811596 C63.4121039,830.605549 63.1841767,830.485066 62.9439966,830.498529 L62.9439966,830.496494 Z M59.2450917,834.207607 L61.9490767,834.207607 C62.1892567,834.22107 62.4171839,834.100587 62.5413299,833.89454 C62.6654758,833.688492 62.6654758,833.43068 62.5413299,833.224633 C62.4171839,833.018586 62.1892567,832.898103 61.9490767,832.911566 L59.2450917,832.911566 C58.8866381,832.911566 58.596054,833.20215 58.596054,833.560604 C58.596054,833.919057 58.8866381,834.209641 59.2450917,834.209641 L59.2450917,834.207607 Z M59.2450917,836.575883 L62.4251733,836.575883 C62.6653534,836.589346 62.8932806,836.468863 63.0174265,836.262815 C63.1415725,836.056768 63.1415725,835.798956 63.0174265,835.592909 C62.8932806,835.386861 62.6653534,835.266378 62.4251733,835.279842 L59.2471263,835.279842 C58.8886727,835.279842 58.5980886,835.570426 58.5980886,835.928879 C58.5980886,836.287333 58.8886727,836.577917 59.2471263,836.577917 L59.2450917,836.575883 Z M68.604257,837.678636 L59.2328841,837.648117 C58.8890825,837.667389 58.6201713,837.951796 58.6201713,838.296138 C58.6201713,838.640479 58.8890825,838.924886 59.2328841,838.944158 L68.604257,838.974677 C68.9595472,838.973579 69.2479206,838.68702 69.2512602,838.331743 L69.2512602,838.331743 C69.2518006,838.159608 69.1839378,837.994307 69.062601,837.872208 C68.9412642,837.750108 68.7763928,837.68121 68.604257,837.680671 L68.604257,837.678636 Z" id="info"></path>
        </g>
    </g>
</svg>