<?xml version="1.0" encoding="UTF-8"?>
<svg width="17px" height="17px" viewBox="0 0 17 17" version="1.1" xmlns="http://www.w3.org/2000/svg" xmlns:xlink="http://www.w3.org/1999/xlink">
    <!-- Generator: sketchtool 41.2 (35397) - http://www.bohemiancoding.com/sketch -->
    <title>9B8BC71D-8BBC-411A-A747-15122675C34A</title>
    <desc>Created with sketchtool.</desc>
    <defs></defs>
    <g id="Page-1" stroke="none" stroke-width="1" fill="none" fill-rule="evenodd">
        <g id="Cash-table-sitdown" transform="translate(-782.000000, -775.000000)" fill="#FFFFFF">
            <g id="Group-5" transform="translate(677.000000, 734.000000)">
                <path d="M113.5,41 C108.802632,41 105,44.8026316 105,49.5 C105,54.1973684 108.802632,58 113.5,58 C118.197368,58 122,54.1973684 122,49.5 C122,44.8026316 118.197368,41 113.5,41 Z M117.095477,51.1352657 L114.427136,51.1352657 L114.427136,54.0338164 C114.427136,54.5652174 114.020101,55 113.522613,55 C113.025126,55 112.61809,54.5652174 112.61809,54.0338164 L112.61809,51.1352657 L109.904523,51.1352657 C109.407035,51.1352657 109,50.7004831 109,50.1690821 C109,49.6376812 109.407035,49.2028986 109.904523,49.2028986 L112.61809,49.2028986 L112.61809,45.9661836 C112.61809,45.4347826 113.025126,45 113.522613,45 C114.020101,45 114.427136,45.4347826 114.427136,45.9661836 L114.427136,49.2028986 L117.095477,49.2028986 C117.592965,49.2028986 118,49.6376812 118,50.1690821 C118,50.7004831 117.592965,51.1352657 117.095477,51.1352657 Z" id="join-seat-icon"></path>
            </g>
        </g>
    </g>
</svg>