<?xml version="1.0" encoding="UTF-8"?>
<svg width="13px" height="13px" viewBox="0 0 13 13" version="1.1" xmlns="http://www.w3.org/2000/svg" xmlns:xlink="http://www.w3.org/1999/xlink">
    <!-- Generator: sketchtool 41.2 (35397) - http://www.bohemiancoding.com/sketch -->
    <title>2EF39A3F-70F3-4777-9ED9-305DC441CB56</title>
    <desc>Created with sketchtool.</desc>
    <defs></defs>
    <g id="Page-1" stroke="none" stroke-width="1" fill="none" fill-rule="evenodd">
        <g id="Table-basic-version" transform="translate(-965.000000, -152.000000)" fill="#C5C5C5">
            <path d="M971.882353,152.904561 L971.625412,153.165543 L976.305412,157.919127 L976.562353,157.658146 C977.645176,156.558297 977.902118,154.526373 976.433882,153.053694 C974.947294,151.543731 972.965176,151.804712 971.882353,152.904561 Z M965.128471,162.39309 L965,164.611429 L965.018353,164.611429 L967.202353,164.49958 C967.165647,163.940335 966.927059,163.437014 966.56,163.045543 C966.192941,162.672712 965.679059,162.430373 965.128471,162.39309 Z M969.936941,162.784561 C969.790118,162.933694 969.551529,162.933694 969.423059,162.784561 C969.276235,162.635429 969.276235,162.39309 969.423059,162.262599 L974.36,157.248033 L973.589176,156.46509 L968.633882,161.461014 C968.487059,161.610146 968.248471,161.610146 968.12,161.461014 C967.973176,161.311882 967.973176,161.069543 968.12,160.939052 L973.056941,155.924486 L972.286118,155.141543 L967.330824,160.156109 C967.184,160.305241 966.945412,160.305241 966.816941,160.156109 C966.670118,160.006977 966.670118,159.764637 966.816941,159.634146 L971.753882,154.61958 L970.983059,153.836637 L965.293647,159.596863 L965.146824,162.038901 C965.789176,162.076184 966.376471,162.355807 966.816941,162.803203 C967.257412,163.250599 967.532706,163.828486 967.569412,164.49958 L969.973647,164.350448 L975.644706,158.590222 L974.873882,157.807278 L969.936941,162.784561 Z" id="note"></path>
        </g>
    </g>
</svg>