<?xml version="1.0" encoding="UTF-8"?>
<svg width="25px" height="34px" viewBox="0 0 25 34" version="1.1" xmlns="http://www.w3.org/2000/svg" xmlns:xlink="http://www.w3.org/1999/xlink">
    <!-- Generator: sketchtool 41.2 (35397) - http://www.bohemiancoding.com/sketch -->
    <title>265792AA-D036-4661-9DDC-E38FE08F044C</title>
    <desc>Created with sketchtool.</desc>
    <defs></defs>
    <g id="Page-1" stroke="none" stroke-width="1" fill="none" fill-rule="evenodd">
        <g id="Cash-table-sitdown" transform="translate(-677.000000, -734.000000)" fill="#7D7D7D">
            <g id="Group-5" transform="translate(677.000000, 734.000000)">
                <path d="M19.813507,22.0246634 C22.8171209,21.1832377 25,18.7134463 25,15.8036305 C25,12.4199956 20.4494041,0 12.5,0 C4.01953211,0 0,12.6758718 0,15.8036305 C0,18.7134463 2.18149967,21.1832377 5.18580335,22.0246634 L1.35248841,31.7189914 C1.14627014,32.2397098 1.40076694,32.8287078 1.92148532,33.0335467 C2.04425072,33.0832046 2.17046458,33.1052748 2.29460936,33.1052748 C2.6973902,33.1052748 3.07948025,32.8625028 3.23604061,32.4645498 L7.17832708,22.4950342 C7.20039726,22.4384794 7.21488082,22.3812348 7.22660561,22.3233006 C7.29971309,22.3253697 7.37144118,22.333646 7.44454866,22.333646 L17.5533823,22.333646 C17.6264897,22.333646 17.6982178,22.3253697 17.7713253,22.3233006 C17.7837398,22.3812348 17.7975337,22.4384794 17.8196038,22.4950342 L21.7612006,32.4645498 C21.9191404,32.8625028 22.3005407,33.1052748 22.7040113,33.1052748 C22.828156,33.1052748 22.9543699,33.0832046 23.0771353,33.0335467 C23.5978537,32.8287078 23.8523505,32.2397098 23.6461322,31.7189914 L19.813507,22.0246634 Z M19.0617413,16.2367579 C16.5857427,17.4547561 14.3035478,17.8616751 12.3572335,17.8616751 C8.54736813,17.8616751 6.02929817,16.2988303 5.8734275,16.2002041 C5.55892739,15.9995034 5.4665085,15.582239 5.66582984,15.2670492 C5.86653057,14.9518594 6.28379497,14.8587508 6.59898477,15.0587619 C6.81554844,15.1967005 11.8496193,18.2782498 18.4651567,15.0228978 C18.7982785,14.8594405 19.2051975,14.9959998 19.3707239,15.3311907 C19.5334915,15.6663816 19.3969322,16.0719212 19.0617413,16.2367579 Z" id="open-seat"></path>
            </g>
        </g>
    </g>
</svg>