<?xml version="1.0" encoding="UTF-8"?>
<svg width="22px" height="27px" viewBox="0 0 22 27" version="1.1" xmlns="http://www.w3.org/2000/svg" xmlns:xlink="http://www.w3.org/1999/xlink">
    <!-- Generator: sketchtool 41.2 (35397) - http://www.bohemiancoding.com/sketch -->
    <title>CCFEC9BE-0954-4AF9-BBF5-4D3F0AA0C4FF</title>
    <desc>Created with sketchtool.</desc>
    <defs></defs>
    <g id="Page-1" stroke="none" stroke-width="1" fill="none" fill-rule="evenodd">
        <g id="Table-basic-version" transform="translate(-1177.000000, -25.000000)">
            <g id="Utility" transform="translate(842.000000, 15.000000)">
                <g id="Play-money-icon" transform="translate(335.000000, 10.000000)">
                    <path d="M17.3971161,3.15290847 C14.1955023,3.15290847 12.2511921,1.2838395 11.4134513,0.237226218 C11.1602993,-0.0790243566 10.6981078,-0.0790243566 10.4449558,0.237226218 C9.60721499,1.2838395 7.66295419,3.15290847 4.46129099,3.15290847 L0.887787611,3.15290847 C0.405517959,3.15290847 0.0146382093,3.55645339 0.0146382093,4.05423537 L0.0146382093,9.91301337 C0.0145887559,20.278528 8.09947944,25.235928 10.9292035,26.1372549 C13.7589276,25.235928 21.8438183,20.2784769 21.8438183,9.91301337 L21.8438183,4.05423537 C21.8438183,3.55640234 21.4528891,3.15290847 20.9706689,3.15290847 L17.3971161,3.15290847 L17.3971161,3.15290847 Z" id="Shape" fill="#3FDF87"></path>
                    <path d="M10.8537376,6.58046232 C10.1677694,6.58046232 9.59129099,7.0740072 9.44006247,7.73519807 C7.64698074,8.18591257 6.56335763,9.4865473 6.56335763,11.2590309 C6.56335763,12.7033185 7.29650442,13.8197672 8.60914628,14.4294493 C8.54653826,14.4223024 8.48308954,14.4186269 8.41919573,14.4186269 L8.33398751,14.4186269 C7.70632483,14.4186269 7.12593961,14.7712246 6.81932847,15.338791 C6.51271733,15.9062553 6.5259214,16.5729595 6.85458876,17.1222502 C7.37790474,17.9970315 8.29912285,18.5935429 9.48882353,18.8413363 C9.69217595,19.4162027 10.2272618,19.8278135 10.8536882,19.8278135 C11.4868402,19.8278135 12.0266736,19.4074733 12.2249323,18.8228054 C14.1616762,18.3890903 15.295,17.0710988 15.295,15.1963123 C15.295,14.1460235 14.9359682,12.8500342 13.4078579,12.0936874 C13.9338444,12.009405 14.4001406,11.6776354 14.6631338,11.1860815 C14.9676679,10.6169836 14.9509526,9.95150456 14.6184774,9.40588936 C14.1203826,8.58838545 13.3006429,8.01198752 12.2684513,7.74055825 C12.1193493,7.07666176 11.5416346,6.58046232 10.8537376,6.58046232 L10.8537376,6.58046232 Z M9.49057089,14.7989114 C9.44431835,14.765748 9.39779373,14.7332872 9.35045289,14.7019506 C9.39697751,14.7150193 9.44363816,14.7279474 9.49057089,14.740735 L9.49057089,14.7989114 L9.49057089,14.7989114 Z" id="Shape" fill="#3FDF87"></path>
                    <path d="M10.9292035,2.33050383 C12.2140526,3.57054301 14.3350104,4.95561332 17.3971655,4.95561332 L20.0974701,4.95561332 L20.0974701,9.91301337 C20.0974701,13.9299317 18.7748386,17.4413085 16.1662702,20.3494355 C14.260583,22.4740063 12.1363613,23.7089406 10.9292035,24.220608 C9.72199636,23.7089406 7.59782405,22.4740574 5.69213691,20.3494355 C3.08356845,17.4413085 1.76093701,13.9299317 1.76093701,9.91301337 L1.76093701,4.95561332 L4.46124154,4.95561332 C7.52339667,4.95561332 9.6443545,3.57049196 10.9292035,2.33050383 L10.9292035,2.33050383 Z M10.9292035,0 C10.75038,0 10.5715565,0.0790243566 10.4449063,0.237175169 C9.60716554,1.28378845 7.66290474,3.15285742 4.46124154,3.15285742 L0.887738157,3.15285742 C0.405517959,3.15285742 0.0145887559,3.55645339 0.0145887559,4.05418432 L0.0145887559,9.91296232 C0.0145887559,20.2784259 8.09947944,25.235877 10.9292035,26.1372039 C13.7589276,25.235877 21.8438183,20.2784259 21.8438183,9.91296232 L21.8438183,4.05418432 C21.8438183,3.55640234 21.4528397,3.15285742 20.9706689,3.15285742 L17.3971655,3.15285742 C14.1955518,3.15285742 12.2512415,1.28378845 11.4135008,0.237175169 C11.2869001,0.0790754059 11.1080271,0 10.9292035,0 L10.9292035,0 Z" id="Shape" fill="#3DE689"></path>
                    <path d="M10.9292035,24.6712204 C10.8729256,24.6712204 10.8165981,24.6597853 10.7633368,24.6373236 C10.0739068,24.3451173 7.64841489,23.1942102 5.37212389,20.6556293 C2.6861114,17.6615353 1.32436231,14.0469367 1.32436231,9.91296232 L1.32436231,4.95556227 C1.32436231,4.70644156 1.51960437,4.50489882 1.76093701,4.50489882 L4.46143935,4.50489882 C7.4164784,4.50489882 9.44762884,3.1432091 10.6311973,2.00113358 C10.7983498,1.83915407 11.0601067,1.83915407 11.2272592,2.00113358 C12.4108277,3.1432091 14.4419287,4.50489882 17.3970172,4.50489882 L20.0975195,4.50489882 C20.3388522,4.50489882 20.5340942,4.70644156 20.5340942,4.95556227 L20.5340942,9.91296232 C20.5340942,14.0469367 19.1723451,17.6615353 16.4862832,20.6556293 C14.2099922,23.1942102 11.7845003,24.3450662 11.0950703,24.6373236 C11.04171,24.6597853 10.9854815,24.6712204 10.9292035,24.6712204 Z M2.19751171,5.40627677 L2.19751171,9.91301337 C2.19751171,13.8128756 3.48122332,17.2210817 6.0124961,20.0430374 C8.01165018,22.2721573 10.1178709,23.3654807 10.9292035,23.7311981 C11.7405362,23.3654807 13.8467569,22.2722594 15.845911,20.0430374 C18.3771838,17.2210307 19.6608954,13.8128245 19.6608954,9.91301337 L19.6608954,5.40627677 L17.3969677,5.40627677 C14.3928709,5.40627677 12.2590057,4.12202888 10.9292035,2.93635723 C9.59940135,4.12202888 7.46548673,5.40627677 4.46143935,5.40627677 L2.19751171,5.40627677 L2.19751171,5.40627677 Z" id="Shape" fill="#31CA76"></path>
                    <path d="M14.4219001,15.1962613 C14.4219001,13.7840327 13.6149193,12.9184914 12.0010073,12.5540502 L11.4328865,12.438934 L11.4328865,10.0115896 C11.8665435,10.1053162 12.2088105,10.3706706 12.3795731,10.7243403 C12.524076,11.0235915 12.8188183,11.2134439 13.1427876,11.2134439 C13.8027434,11.2134439 14.2308615,10.4625083 13.8794456,9.88580407 C13.4207652,9.13303071 12.5610672,8.62825498 11.4328371,8.49889599 L11.4328371,8.07967892 C11.4328371,7.74949188 11.1735528,7.48178922 10.8536387,7.48178922 C10.5337741,7.48178922 10.2744404,7.74949188 10.2744404,8.07967892 L10.2744404,8.49874284 C8.48388079,8.69997928 7.43640812,9.71157273 7.43640812,11.2589799 C7.43640812,12.6126549 8.24966944,13.5172489 9.769076,13.8816901 L10.2744404,14.0047189 L10.2744404,16.5556538 C9.76269651,16.4573838 9.37339927,16.1866692 9.18122332,15.8063518 C9.03192348,15.5107762 8.74197814,15.3199538 8.41904737,15.3199538 L8.33383915,15.3199538 C7.67343831,15.3199538 7.25031494,16.0686432 7.59732952,16.6486656 C8.07005466,17.4387561 9.00289433,17.9366401 10.2743909,18.0467535 L10.2743909,18.3286479 C10.2743909,18.6588349 10.5337246,18.9265376 10.8535893,18.9265376 C11.1734539,18.9265376 11.4327876,18.658886 11.4327876,18.3286479 L11.4327876,18.0406276 C13.344607,17.8373492 14.4219001,16.818813 14.4219001,15.1962613 Z M9.258519,11.0963367 C9.258519,10.5283109 9.67412546,10.0985777 10.2745393,10.0020944 L10.2745393,12.1875161 C9.61097345,12.0008287 9.258519,11.6269945 9.258519,11.0963367 Z M11.4328371,16.5788812 L11.4328371,14.2310206 C12.2537637,14.4216898 12.6377199,14.7991486 12.6377199,15.4045425 C12.6377199,16.0638956 12.1933316,16.4964365 11.4328371,16.5788812 Z" id="Shape" fill="#FFF5C8"></path>
                    <path d="M14.4219001,15.1962613 C14.4219001,13.7840327 13.6149193,12.9184914 12.0010073,12.5540502 L11.4328865,12.438934 L11.4328865,10.0115896 C11.8665435,10.1053162 12.2088105,10.3706706 12.3795731,10.7243403 C12.524076,11.0235915 12.8188183,11.2134439 13.1427876,11.2134439 C13.8027434,11.2134439 14.2308615,10.4625083 13.8794456,9.88580407 C13.4207652,9.13303071 12.5610672,8.62825498 11.4328371,8.49889599 L11.4328371,8.07967892 C11.4328371,7.74949188 11.1735528,7.48178922 10.8536387,7.48178922 C10.5337741,7.48178922 10.2744404,7.74949188 10.2744404,8.07967892 L10.2744404,8.49874284 C8.48388079,8.69997928 7.43640812,9.71157273 7.43640812,11.2589799 C7.43640812,12.6126549 8.24966944,13.5172489 9.769076,13.8816901 L10.2744404,14.0047189 L10.2744404,16.5556538 C9.76269651,16.4573838 9.37339927,16.1866692 9.18122332,15.8063518 C9.03192348,15.5107762 8.74197814,15.3199538 8.41904737,15.3199538 L8.33383915,15.3199538 C7.67343831,15.3199538 7.25031494,16.0686432 7.59732952,16.6486656 C8.07005466,17.4387561 9.00289433,17.9366401 10.2743909,18.0467535 L10.2743909,18.3286479 C10.2743909,18.6588349 10.5337246,18.9265376 10.8535893,18.9265376 C11.1734539,18.9265376 11.4327876,18.658886 11.4327876,18.3286479 L11.4327876,18.0406276 C13.344607,17.8373492 14.4219001,16.818813 14.4219001,15.1962613 Z M9.258519,11.0963367 C9.258519,10.5283109 9.67412546,10.0985777 10.2745393,10.0020944 L10.2745393,12.1875161 C9.61097345,12.0008287 9.258519,11.6269945 9.258519,11.0963367 Z M11.4328371,16.5788812 L11.4328371,14.2310206 C12.2537637,14.4216898 12.6377199,14.7991486 12.6377199,15.4045425 C12.6377199,16.0638956 12.1933316,16.4964365 11.4328371,16.5788812 Z" id="Shape" fill="#31CA76"></path>
                </g>
            </g>
        </g>
    </g>
</svg>