<?xml version="1.0" encoding="UTF-8"?>
<svg width="25px" height="25px" viewBox="0 0 25 25" version="1.1" xmlns="http://www.w3.org/2000/svg" xmlns:xlink="http://www.w3.org/1999/xlink">
    <!-- Generator: sketchtool 41.2 (35397) - http://www.bohemiancoding.com/sketch -->
    <title>7C10E291-EB4A-4AA3-89BE-90934E630FA7</title>
    <desc>Created with sketchtool.</desc>
    <defs></defs>
    <g id="Page-1" stroke="none" stroke-width="1" fill="none" fill-rule="evenodd">
        <g id="Table-basic-version" transform="translate(-859.000000, -23.000000)">
            <g id="Utility" transform="translate(842.000000, 15.000000)">
                <g id="real-money-icon" transform="translate(17.000000, 8.000000)">
                    <path d="M24.253057,10.474714 C24.223248,10.2686954 24.0429178,10.1176438 23.8353499,10.1176438 L22.9154611,10.1176438 C22.6317041,8.65736627 22.0605711,7.30024134 21.2609182,6.10959321 L21.9100499,5.45858586 C22.0569521,5.31125915 22.0777136,5.07587071 21.9532396,4.90901187 C21.2528707,3.97051448 20.4214565,3.13669784 19.4856156,2.43425747 C19.3193327,2.30942375 19.0845749,2.33029305 18.9376727,2.47761975 L18.2884934,3.12867486 C17.1013711,2.3266636 15.7481564,1.75388028 14.2920863,1.4693511 L14.2920863,0.546756396 C14.2920863,0.338541016 14.1415175,0.157689721 13.9360448,0.127842333 C13.365769,0.0448904718 12.7833981,0 12.1902655,0 C11.5971329,0 11.014762,0.0448904718 10.4445338,0.127842333 C10.2391087,0.157737477 10.0884923,0.338588771 10.0884923,0.546756396 L10.0884923,1.46930335 C8.63242222,1.75388028 7.27920752,2.32661585 6.09203756,3.12862711 L5.44290592,2.477572 C5.2960037,2.33024529 5.06129347,2.309376 4.89491539,2.43420971 C3.95912204,3.13665008 3.12770784,3.97046672 2.42729138,4.90896412 C2.30281734,5.07582295 2.3236265,5.3112114 2.47052873,5.45853811 L3.11970798,6.10959321 C2.31991228,7.30019359 1.74882692,8.65736627 1.46506991,10.117596 L0.545181053,10.117596 C0.337565594,10.117596 0.157235377,10.2685999 0.127473987,10.4746663 C0.0448087493,11.04659 0,11.6306437 0,12.2254902 C0,12.8203367 0.0448087493,13.4043904 0.127473987,13.9762186 C0.157282996,14.1822372 0.337613212,14.3333366 0.545181053,14.3333366 L1.46506991,14.3333366 C1.74882692,15.7936141 2.31991228,17.150739 3.11961275,18.3413394 L2.47043349,18.9923945 C2.32353127,19.1397212 2.3027221,19.3751097 2.42719614,19.5419685 C3.12761261,20.4804659 3.95897919,21.3142826 4.89482016,22.0166752 C5.06119823,22.1415089 5.29586084,22.1206396 5.44281069,21.9733129 L6.09194232,21.3223055 C7.27911228,22.1243168 8.6323746,22.6971001 10.0883971,22.9816293 L10.0883971,23.9041762 C10.0883971,24.1123916 10.2389659,24.2932429 10.4444385,24.3230903 C11.014762,24.4060422 11.5971329,24.4509804 12.1902655,24.4509804 C12.7833981,24.4509804 13.365769,24.4060422 13.9359972,24.3231381 C14.1414699,24.2932429 14.2920387,24.1123916 14.2920387,23.904224 L14.2920387,22.981677 C15.7481088,22.6971001 17.1013235,22.1243645 18.2884934,21.3223533 L18.9376727,21.9733606 C19.0845749,22.1206873 19.3192851,22.1415566 19.4856156,22.0167229 C20.4215042,21.3142826 21.2528707,20.4805137 21.9532396,19.5420163 C22.0777613,19.3752052 22.0569997,19.139769 21.9100499,18.9924423 L21.2609182,18.3414349 C22.0606187,17.1508346 22.6317517,15.7937096 22.9154611,14.3334321 L23.8353499,14.3334321 C24.0429654,14.3334321 24.2232956,14.1823327 24.253057,13.9763141 C24.3357222,13.4043904 24.380531,12.8203367 24.380531,12.2254902 C24.380531,11.6306437 24.3357222,11.04659 24.253057,10.474714 Z M12.1902655,20.6568759 C7.54715526,20.6568759 3.7831727,16.8819693 3.7831727,12.2254902 C3.7831727,7.56896335 7.54710765,3.79410447 12.1902655,3.79410447 C16.8334233,3.79410447 20.5973583,7.56896335 20.5973583,12.2254902 C20.5973583,16.8819693 16.8333757,20.6568759 12.1902655,20.6568759 Z" id="Shape" fill="#3DE689"></path>
                    <path d="M12.1902655,2.52943482 C6.85064349,2.52943482 2.52214688,6.87043896 2.52214688,12.2254902 C2.52214688,17.5804459 6.85069111,21.9215456 12.1902655,21.9215456 C17.5298399,21.9215456 21.8583841,17.5804459 21.8583841,12.2254902 C21.8583841,6.87043896 17.5298875,2.52943482 12.1902655,2.52943482 Z M12.1902655,20.6568759 C7.54715526,20.6568759 3.7831727,16.8819693 3.7831727,12.2254902 C3.7831727,7.56896335 7.54710765,3.79410447 12.1902655,3.79410447 C16.8334233,3.79410447 20.5973583,7.56896335 20.5973583,12.2254902 C20.5973583,16.8819693 16.8333757,20.6568759 12.1902655,20.6568759 Z" id="Shape" fill="#31CA76"></path>
                    <path d="M15.8981062,14.2801844 C15.8981062,12.8236796 15.0414067,11.9309323 13.3280553,11.5550462 L12.7249705,11.4363253 L12.7249705,8.93277409 C13.1853435,9.02947963 13.5487182,9.30312048 13.7300008,9.66787944 C13.8833791,9.97652531 14.1963261,10.1722764 14.5402249,10.1722764 C15.2408318,10.1722764 15.6953478,9.39777252 15.3223066,8.80297377 C14.8353626,8.02655963 13.9227594,7.50597342 12.7249705,7.37254366 L12.7249705,6.9401147 C12.7249705,6.59952018 12.4496896,6.32353929 12.1101716,6.32353929 C11.7706537,6.32353929 11.4953727,6.59961569 11.4953727,6.9401147 L11.4953727,7.37230488 C9.59450083,7.57985168 8.48252005,8.62322086 8.48252005,10.2192204 C8.48252005,11.6153618 9.34588608,12.5483195 10.9588582,12.9242056 L11.4953251,13.0510928 L11.4953251,15.6820565 C10.9520488,15.5807664 10.5387702,15.3014904 10.3347737,14.9092718 C10.1763003,14.6044464 9.86844848,14.4075969 9.52564488,14.4075969 L9.43521787,14.4075969 C8.73413475,14.4075969 8.28490442,15.1797608 8.65332662,15.777998 C9.15517509,16.5929033 10.1455389,17.1063739 11.4952775,17.219985 L11.4952775,17.5107702 C11.4952775,17.8512692 11.7705585,18.1273456 12.1100764,18.1273456 C12.4495943,18.1273456 12.7248753,17.8512692 12.7248753,17.5107702 L12.7248753,17.213729 C14.7544593,17.0041287 15.8981062,15.9536439 15.8981062,14.2801844 Z M10.4166295,10.051502 C10.4166295,9.4656813 10.8578599,9.02245952 11.4952775,8.92288863 L11.4952775,11.1769156 C10.7908611,10.9844119 10.4166295,10.5988314 10.4166295,10.051502 Z M12.7249705,15.7061732 L12.7249705,13.2846666 C13.5964793,13.481325 14.0040437,13.8705827 14.0040437,14.4949901 C14.0040437,15.175033 13.5322423,15.6211201 12.7249705,15.7061732 Z" id="Shape" fill="#31CA76"></path>
                </g>
            </g>
        </g>
    </g>
</svg>