<?xml version="1.0" encoding="UTF-8"?>
<svg width="46px" height="46px" viewBox="0 0 46 46" version="1.1" xmlns="http://www.w3.org/2000/svg" xmlns:xlink="http://www.w3.org/1999/xlink">
    <!-- Generator: sketchtool 41.2 (35397) - http://www.bohemiancoding.com/sketch -->
    <title>9AFF60F9-AD62-45FB-BF9C-37B8AF19B8DB</title>
    <desc>Created with sketchtool.</desc>
    <defs></defs>
    <g id="Page-1" stroke="none" stroke-width="1" fill="none" fill-rule="evenodd">
        <g id="Table-basic-version" transform="translate(-30.000000, -181.000000)" fill="#2986FF">
            <g id="Reply" transform="translate(30.000000, 181.000000)">
                <circle id="Oval-15" fill-opacity="0.351251132" cx="23" cy="23" r="23"></circle>
                <path d="M30.3335044,24.6667522 C30.3335044,28.7131157 27.0461068,32.0002567 23.0002567,32.0002567 C18.9538932,32.0002567 15.6667522,28.712859 15.6667522,24.6667522 C15.6667522,20.6206454 18.9541498,17.3335044 23.0002567,17.3335044 L26.6883123,17.3727746 L26.6883123,21.0179667 L32.1992207,15.5001283 L26.6883123,10 L26.6883123,13.6664956 L23,13.6664956 C16.9269898,13.6664956 12,18.593742 12,24.6667522 C12,30.7397625 16.9269898,35.6667522 23,35.6667522 C29.0727536,35.6667522 34,30.7397625 34,24.6667522 L30.3335044,24.6667522 Z" id="Shape"></path>
            </g>
        </g>
    </g>
</svg>