<?xml version="1.0" encoding="UTF-8"?>
<svg width="32px" height="34px" viewBox="0 0 32 34" version="1.1" xmlns="http://www.w3.org/2000/svg" xmlns:xlink="http://www.w3.org/1999/xlink">
    <!-- Generator: sketchtool 41.2 (35397) - http://www.bohemiancoding.com/sketch -->
    <title>4DB0FCBC-33F5-4FE5-86E3-406291DD8B5F</title>
    <desc>Created with sketchtool.</desc>
    <defs></defs>
    <g id="Page-1" stroke="none" stroke-width="1" fill="none" fill-rule="evenodd">
        <g id="Table-basic-version" transform="translate(-1381.000000, -102.000000)" fill="#A2A2A2">
            <path d="M1400.2,102 L1400.96248,106.2 C1402.72476,106.754388 1404.31788,107.673936 1405.675,108.8625 L1409.66248,107.325 L1413,112.7875 L1409.8,115.625 C1410.05104,116.6422 1410.18752,117.70524 1410.18752,118.79998 C1410.18752,119.89474 1410.05104,120.95782 1409.8,121.97502 L1413,124.8125 L1409.66248,130.27502 L1405.675,128.7375 C1404.31788,129.92602 1402.72472,130.84562 1400.96248,131.40002 L1400.2,135.60002 L1393.8,135.60002 L1393.03752,131.40002 C1391.27524,130.84562 1389.68216,129.92602 1388.325,128.7375 L1384.33752,130.27502 L1381,124.8125 L1384.18752,121.9625 C1383.93884,120.94978 1383.81248,119.8895 1383.81248,118.79998 C1383.81248,117.71044 1383.93884,116.650256 1384.18752,115.6375 L1381,112.7875 L1384.33752,107.325 L1388.325,108.8625 C1389.68216,107.673936 1391.27524,106.754388 1393.03752,106.2 L1393.8,102 L1400.2,102 Z M1397,110.8 C1392.5912,110.8 1389,114.391164 1389,118.79998 C1389,123.20878 1392.5912,126.80002 1397,126.80002 C1401.4088,126.80002 1405,123.20882 1405,118.79998 C1405,114.39116 1401.4088,110.8 1397,110.8 Z M1397,112.4 C1400.54408,112.4 1403.4,115.255856 1403.4,118.79998 C1403.4,122.3441 1400.54408,125.20002 1397,125.20002 C1393.45588,125.20002 1390.6,122.3441 1390.6,118.79998 C1390.6,115.25586 1393.45588,112.4 1397,112.4 Z" id="Setting"></path>
        </g>
    </g>
</svg>