<?xml version="1.0" encoding="UTF-8"?>
<svg width="9px" height="9px" viewBox="0 0 9 9" version="1.1" xmlns="http://www.w3.org/2000/svg" xmlns:xlink="http://www.w3.org/1999/xlink">
    <!-- Generator: sketchtool 41.2 (35397) - http://www.bohemiancoding.com/sketch -->
    <title>005DAEE7-68EE-4A08-9032-26CED9FC31C0</title>
    <desc>Created with sketchtool.</desc>
    <defs></defs>
    <g id="Page-1" stroke="none" stroke-width="1" fill="none" fill-rule="evenodd">
        <g id="Table-basic-version" transform="translate(-1179.000000, -649.000000)" fill="#FFFFFF">
            <path d="M1179.02227,654.120298 C1178.98361,654.038992 1178.99598,653.942602 1179.05391,653.873688 L1179.89146,652.863981 C1179.93991,652.806174 1180.01146,652.772782 1180.08688,652.772782 C1180.16231,652.772782 1180.23386,652.806174 1180.28231,652.863981 L1181.11986,653.873688 C1181.17774,653.942707 1181.19037,654.039016 1181.15226,654.120632 C1181.11415,654.202248 1181.03219,654.254381 1180.94211,654.254305 L1180.58662,654.254305 C1180.64635,655.639547 1181.70184,656.777047 1183.07875,656.940076 C1184.45566,657.103105 1185.74761,656.243545 1186.12918,654.910555 C1186.51076,653.577564 1185.86935,652.16457 1184.61473,651.574311 C1183.36012,650.984051 1181.8626,651.390739 1181.07891,652.534547 C1181.067,652.551781 1181.04772,652.562454 1181.0268,652.563396 C1181.00432,652.565122 1180.98242,652.555736 1180.96817,652.53827 L1180.4098,651.869165 C1180.3897,651.844514 1180.3897,651.80913 1180.4098,651.78448 C1181.02827,650.997382 1181.93005,650.483372 1182.92244,650.352279 L1182.92244,649.980037 L1182.5502,649.980037 C1182.36426,649.999569 1182.18336,649.911894 1182.08349,649.753851 C1181.98362,649.595807 1181.98209,649.394781 1182.07954,649.235235 C1182.17699,649.07569 1182.35654,648.985272 1182.54275,649.001971 L1184.27554,649.001971 C1184.45602,648.994111 1184.62625,649.085918 1184.71884,649.241038 C1184.81142,649.396158 1184.81142,649.589572 1184.71884,649.744692 C1184.62625,649.899812 1184.45602,649.991619 1184.27554,649.983759 L1183.9033,649.983759 L1183.9033,650.356001 C1184.57725,650.443469 1185.21528,650.710574 1185.75055,651.129334 L1186.16932,650.710562 C1186.29138,650.577401 1186.47667,650.521955 1186.65181,650.566177 C1186.82696,650.610398 1186.96371,650.747155 1187.00793,650.922299 C1187.05216,651.097444 1186.99671,651.282729 1186.86355,651.404793 L1186.44106,651.827287 C1186.94891,652.48784 1187.22319,653.298254 1187.2209,654.131465 C1187.2538,656.234842 1185.57534,657.966631 1183.47196,657.999525 C1181.36858,658.032418 1179.63679,656.35396 1179.6039,654.250583 L1179.23166,654.250583 C1179.1425,654.25144 1179.06089,654.20066 1179.02227,654.120298 L1179.02227,654.120298 Z M1185.00327,652.53827 C1184.89402,652.428597 1184.72034,652.417045 1184.59753,652.511282 L1183.51151,653.375814 C1183.18581,653.330183 1182.8674,653.49784 1182.72072,653.792198 C1182.57403,654.086556 1182.63192,654.441725 1182.86447,654.674279 C1183.09702,654.906833 1183.45219,654.964715 1183.74655,654.818033 C1184.04091,654.67135 1184.20857,654.352937 1184.16293,654.027238 L1185.0256,652.944013 C1185.12385,652.821519 1185.11423,652.644725 1185.00327,652.533617 L1185.00327,652.53827 Z" id="Time-bank"></path>
        </g>
    </g>
</svg>