<?xml version="1.0" encoding="UTF-8"?>
<svg width="158px" height="161px" viewBox="0 0 158 161" version="1.1" xmlns="http://www.w3.org/2000/svg" xmlns:xlink="http://www.w3.org/1999/xlink">
    <!-- Generator: sketchtool 41.2 (35397) - http://www.bohemiancoding.com/sketch -->
    <title>C06977AE-F092-4DD5-B934-09D9FC278A38</title>
    <desc>Created with sketchtool.</desc>
    <defs>
        <linearGradient x1="50%" y1="0%" x2="50%" y2="96.597898%" id="linearGradient-1">
            <stop stop-color="#2B67F5" offset="0%"></stop>
            <stop stop-color="#500093" offset="100%"></stop>
        </linearGradient>
        <linearGradient x1="0%" y1="96.5978998%" x2="100%" y2="0%" id="linearGradient-2">
            <stop stop-color="#27BD25" offset="0%"></stop>
            <stop stop-color="#17EB98" offset="100%"></stop>
        </linearGradient>
    </defs>
    <g id="Page-1" stroke="none" stroke-width="1" fill="none" fill-rule="evenodd">
        <g id="Table-Buyin-preference-popup" transform="translate(-641.000000, -43.000000)">
            <g id="Tournament-logo" transform="translate(641.000000, 43.000000)">
                <circle id="Oval-5" fill="url(#linearGradient-1)" cx="78.5" cy="68.5" r="68.5"></circle>
                <path d="M93.25,65.2213583 C101.3979,65.2213583 108,58.5982735 108,50.4288818 C108,42.2594901 101.3979,35.6364052 93.25,35.6364052 C90.5773,35.6364052 88.0757,36.3602504 85.9143333,37.6087354 L85.5033,37.6087354 C89.5271,35.2084096 92.2332333,30.8140579 92.2332333,25.7747542 C92.2332333,18.1674766 86.0854333,12 78.5,12 C70.9145667,12 64.7648,18.1674766 64.7648,25.7747542 C64.7648,30.8140579 67.4709333,35.2084096 71.4967,37.6087354 L71.0876333,37.6087354 C68.9243,36.3602504 66.4246667,35.6364052 63.75,35.6364052 C55.6040667,35.6364052 49,42.2594901 49,50.4288818 C49,58.5982735 55.6040667,65.2213583 63.75,65.2213583 C67.9881667,65.2213583 71.7956333,63.4186485 74.488,60.5508804 C73.6797,68.6788532 65.1365,75.0830094 56.8666667,75.0830094 L57.85,75.0830094 C56.2196318,75.0830094 54.9,76.4084153 54.9,78.0415047 C54.9,79.6745941 56.2196318,81 57.85,81 L99.15,81 C100.7784,81 102.1,79.6745941 102.1,78.0415047 C102.1,76.4084153 100.7784,75.0830094 99.15,75.0830094 L100.133333,75.0830094 C91.8635,75.0830094 83.3203,68.6768809 82.5139667,60.5489081 C85.2024,63.4186485 89.0138,65.2213583 93.25,65.2213583" id="Page-1" fill="#FFFFFF"></path>
                <path d="M79.0001647,138.862574 L128.711953,138.862574 C131.935299,138.862574 134.773081,136.041587 134.773081,132.837316 L134.773081,97.5787613 C134.773081,94.3744903 131.935299,92 128.711953,92 L79.0001647,92 L29.2883768,92 C26.06503,92 23.2272489,94.3744903 23.2272489,97.5787613 L23.2272489,132.837316 C23.2272489,136.041587 26.06503,138.862574 29.2883768,138.862574 L79.0001647,138.862574 Z M115.167,145.539994 L128.711953,145.539994 C135.6387,145.539994 141.490252,139.723071 141.490252,132.837316 L141.490252,113.199471 L152.16339,113.199471 C154.108683,113.199471 155.925902,114.163245 157.010054,115.768942 C158.094205,117.375084 158.301542,119.412142 157.564444,121.201245 L151.112377,136.854006 L157.564444,152.506768 C158.30199,154.295871 158.094653,156.332929 157.010054,157.939071 C155.92635,159.544768 154.108683,160.508542 152.16339,160.508542 L116.667168,160.508542 C114.592458,160.508542 112.673586,159.413445 111.62705,157.6328 C110.580963,155.852155 110.563946,153.652613 111.583165,151.855942 L115.167,145.539994 Z M42.8333297,145.539994 L29.2883768,145.539994 C22.3616293,145.539994 16.5100771,139.723071 16.5100771,132.837316 L16.5100771,113.199471 L5.8369391,113.199471 C3.89164617,113.199471 2.07442731,114.163245 0.990275799,115.768942 C-0.0938757166,117.375084 -0.301212417,119.412142 0.435885226,121.201245 L6.88795257,136.854006 L0.435885226,152.506768 C-0.301660228,154.295871 -0.0943235281,156.332929 0.990275799,157.939071 C2.0739795,159.544768 3.89164617,160.508542 5.8369391,160.508542 L41.3331613,160.508542 C43.4078718,160.508542 45.3267438,159.413445 46.3732792,157.6328 C47.4193667,155.852155 47.4363835,153.652613 46.4171647,151.855942 L42.8333297,145.539994 Z" id="Combined-Shape" fill="url(#linearGradient-2)"></path>
                <text id="HOLDEM" font-family="ProximaNova-Semibold, Proxima Nova" font-size="20" font-weight="500" fill="#FFFFFF">
                    <tspan x="38" y="122">HOLDEM</tspan>
                </text>
            </g>
        </g>
    </g>
</svg>