<?xml version="1.0" encoding="UTF-8"?>
<svg width="27px" height="28px" viewBox="0 0 27 28" version="1.1" xmlns="http://www.w3.org/2000/svg" xmlns:xlink="http://www.w3.org/1999/xlink">
    <!-- Generator: sketchtool 41.2 (35397) - http://www.bohemiancoding.com/sketch -->
    <title>2477837D-1363-47C0-922A-22EF3EEE7F9F</title>
    <desc>Created with sketchtool.</desc>
    <defs>
        <linearGradient x1="0%" y1="96.5978998%" x2="100%" y2="0%" id="linearGradient-1">
            <stop stop-color="#27BD25" offset="0%"></stop>
            <stop stop-color="#17EB98" offset="100%"></stop>
        </linearGradient>
    </defs>
    <g id="Page-1" stroke="none" stroke-width="1" fill="none" fill-rule="evenodd">
        <g id="Table-basic-version" transform="translate(-502.000000, -660.000000)" fill="url(#linearGradient-1)">
            <path d="M524.278331,663.264117 C522.295658,661.556473 519.963279,660.528313 517.560412,660.157461 C513.098738,659.468722 508.395183,661.046517 505.244089,664.751009 C500.395916,670.450607 501.057445,679.02548 506.721782,683.903925 C508.704455,685.611477 511.036743,686.639545 513.43961,687.010489 C517.901193,687.69932 522.60493,686.121342 525.755933,682.416758 C530.604106,676.717251 529.942486,668.142379 524.278331,663.264117 Z M526.894847,677.524568 L522.768946,676.093391 C523.324652,674.461989 523.317913,672.693041 522.770221,671.078683 L526.891751,669.651446 C527.217506,670.609321 527.4256,671.615122 527.505559,672.651713 C527.63506,674.329483 527.42223,675.98022 526.894847,677.524568 Z M527.126528,669.535502 L527.126528,669.534702 L527.126528,669.535502 Z M524.579316,665.633009 L521.294532,668.504159 C521.051468,668.22421 520.786456,667.957915 520.497492,667.70903 C519.453199,666.809711 518.238059,666.243307 516.978842,665.996163 L517.807119,661.712988 C519.840699,662.109774 521.742229,663.022838 523.329114,664.389595 C523.778997,664.777033 524.196187,665.192879 524.579316,665.633009 Z M511.403025,662.197653 C511.988419,661.985515 512.58884,661.821119 513.198003,661.703916 L514.025551,665.996438 C512.405517,666.314142 510.876006,667.15573 509.709497,668.501868 L506.421435,665.624578 C507.767806,664.070059 509.486468,662.892715 511.403025,662.197653 Z M504.105903,669.643382 L508.231076,671.074467 C507.67537,672.70587 507.682109,674.474635 508.22971,676.089084 L504.104719,677.517512 C503.78033,676.560737 503.573147,675.556494 503.49337,674.522102 C503.36387,672.842866 503.577336,671.189654 504.105903,669.643382 Z M510.50335,665.635391 C510.90572,665.635391 511.231905,665.307175 511.231905,664.9023 C511.231905,664.497425 510.90572,664.169209 510.50335,664.169209 C510.100979,664.169209 509.774794,664.497425 509.774794,664.9023 C509.774794,665.307175 510.100979,665.635391 510.50335,665.635391 Z M505.529683,674.330216 C505.932053,674.330216 506.258239,674.002 506.258239,673.597125 C506.258239,673.19225 505.932053,672.864034 505.529683,672.864034 C505.127313,672.864034 504.801127,673.19225 504.801127,673.597125 C504.801127,674.002 505.127313,674.330216 505.529683,674.330216 Z M525.470157,674.30355 C525.872527,674.30355 526.198712,673.975334 526.198712,673.570459 C526.198712,673.165584 525.872527,672.837368 525.470157,672.837368 C525.067787,672.837368 524.741601,673.165584 524.741601,673.570459 C524.741601,673.975334 525.067787,674.30355 525.470157,674.30355 Z M520.473723,665.621921 C520.876093,665.621921 521.202279,665.293705 521.202279,664.88883 C521.202279,664.483955 520.876093,664.155739 520.473723,664.155739 C520.071353,664.155739 519.745168,664.483955 519.745168,664.88883 C519.745168,665.293705 520.071353,665.621921 520.473723,665.621921 Z M514.695308,675.307615 C513.552379,675.984112 512.625852,675.458743 512.625852,674.131504 L512.625852,672.769016 C512.625852,671.442972 513.579337,670.877413 514.742214,671.498696 L515.983414,672.161824 C517.152249,672.786291 517.1712,673.842142 516.03032,674.517425 L514.695308,675.307615 Z M511.752729,684.440832 C511.986756,684.49224 512.21782,684.525504 512.437034,684.525504 C512.83399,684.525504 513.269457,684.413616 513.63679,684.177744 C513.57458,684.183792 513.503483,684.183792 513.444236,684.183792 C512.943598,684.183792 512.428147,684.020496 511.918621,683.696928 C511.139521,683.19192 510.621108,682.184928 510.304136,681.37752 C509.696852,681.610368 509.208063,681.903696 508.994773,682.039776 C509.273235,682.469184 510.410781,684.126336 511.752729,684.440832 Z M512.063777,683.46408 C512.525905,683.763456 512.990995,683.908608 513.444236,683.908608 C513.761209,683.908608 514.027821,683.84208 514.238148,683.739264 C514.211487,683.739264 514.184826,683.745312 514.161127,683.745312 C513.639752,683.745312 512.860652,683.551776 512.146723,682.638528 C511.610536,681.958128 511.423907,680.936016 511.379472,680.104416 C510.864022,680.140704 510.449291,680.225376 510.238964,680.270736 C510.363383,680.769696 510.89957,682.720176 512.063777,683.46408 Z M514.158165,683.476176 C514.261847,683.476176 514.36553,683.467104 514.46625,683.44896 C513.57458,683.231232 512.993958,682.426848 512.730308,681.667824 C512.454808,680.84832 512.597002,679.862496 512.813254,679.070208 C512.312615,678.92808 511.877148,678.870624 511.663859,678.843408 C511.613498,679.357488 511.495004,681.37752 512.348163,682.472208 C512.99692,683.303808 513.693074,683.476176 514.158165,683.476176 Z M514.738787,683.219136 C514.09003,682.856256 513.547919,682.070016 513.547919,680.872512 C513.547919,679.983456 513.983386,679.115568 514.436626,678.45936 C514.03967,678.193248 513.693074,678.00576 513.503483,677.91504 C513.296118,678.386784 512.528867,680.252592 512.979146,681.57408 C513.4235,682.868352 514.279621,683.16168 514.738787,683.219136 Z M519.134928,683.696928 C518.625402,684.020496 518.109951,684.183792 517.60635,684.183792 C517.544141,684.183792 517.478969,684.183792 517.419722,684.177744 C517.784092,684.413616 518.219559,684.525504 518.613552,684.525504 C518.832767,684.525504 519.063831,684.49224 519.303782,684.440832 C520.636843,684.126336 521.777352,682.469184 522.055813,682.039776 C521.848448,681.903696 521.353734,681.610368 520.746451,681.37752 C520.435403,682.184928 519.908103,683.194944 519.134928,683.696928 Z M516.898347,683.748336 C516.865761,683.748336 516.839099,683.742288 516.815401,683.742288 C517.02869,683.84208 517.289378,683.911632 517.609313,683.911632 C518.059591,683.911632 518.533569,683.76648 518.992734,683.467104 C520.153979,682.7232 520.693128,680.769696 520.817547,680.270736 C520.610182,680.225376 520.189527,680.140704 519.680002,680.104416 C519.626679,680.93904 519.443013,681.961152 518.906826,682.641552 C518.192897,683.5548 517.422684,683.748336 516.898347,683.748336 Z M518.320279,681.667824 C518.056629,682.426848 517.478969,683.231232 516.581374,683.44896 C516.685057,683.46408 516.785777,683.476176 516.895384,683.476176 C517.35455,683.476176 518.050704,683.303808 518.696498,682.472208 C519.549658,681.37752 519.434126,679.357488 519.386728,678.843408 C519.170476,678.870624 518.732047,678.92808 518.231408,679.070208 C518.453585,679.862496 518.598741,680.84832 518.320279,681.667824 Z M516.225891,683.231232 C516.655433,683.194944 517.597463,682.95 518.068478,681.577104 C518.518757,680.255616 517.757431,678.386784 517.544141,677.918064 C517.35455,678.008784 516.975368,678.208368 516.557675,678.501696 C516.972406,679.115568 517.434534,680.0016 517.434534,680.872512 C517.434534,682.079088 516.883535,682.868352 516.225891,683.231232 Z M515.426054,683.1768 C515.434941,683.1768 515.443828,683.182848 515.461603,683.188896 C515.464565,683.188896 515.473452,683.182848 515.488264,683.182848 L515.491226,683.182848 L515.503076,683.182848 C515.511963,683.182848 515.523812,683.188896 515.526774,683.188896 C515.541586,683.182848 515.553436,683.1768 515.562323,683.1768 C516.116284,683.092128 517.170884,682.51152 517.170884,680.872512 C517.170884,679.4724 515.840785,677.966448 515.491226,677.594496 C515.117969,677.981568 513.817493,679.408896 513.817493,680.872512 C513.814531,681.586176 514.15224,682.99536 515.426054,683.1768 Z" id="Who-is-playing"></path>
        </g>
    </g>
</svg>