<?xml version="1.0" encoding="UTF-8"?>
<svg width="50px" height="66px" viewBox="0 0 50 66" version="1.1" xmlns="http://www.w3.org/2000/svg" xmlns:xlink="http://www.w3.org/1999/xlink">
    <!-- Generator: sketchtool 41.2 (35397) - http://www.bohemiancoding.com/sketch -->
    <title>92B8ADF1-4551-491A-B14B-D4A0045CB3E8</title>
    <desc>Created with sketchtool.</desc>
    <defs></defs>
    <g id="Page-1" stroke="none" stroke-width="1" fill="none" fill-rule="evenodd">
        <g id="Table-basic-version" transform="translate(-14.000000, -11.000000)" fill="#FFFFFF">
            <path d="M55.2561688,17.044661 C51.5845525,13.8823579 47.2653312,11.9783579 42.8155771,11.2915943 C34.5532177,10.0161519 25.8429315,12.9379943 20.0075727,19.798164 C11.0294749,30.3529761 12.2545276,46.2323701 22.7440408,55.2665276 C26.4156571,58.428661 30.7347097,60.3324913 35.1844638,61.0194246 C43.4466546,62.2950367 52.1572781,59.3728549 57.9924682,52.5125155 C66.970566,41.9578731 65.7453447,26.0784792 55.2561688,17.044661 Z M60.1015691,43.4529034 L52.4610115,40.8025761 C53.4900962,37.781461 53.4776163,34.5056307 52.4633726,31.5160792 L60.0958351,28.8730489 C60.6990858,30.6468913 61.0844444,32.5094852 61.2325166,34.4290973 C61.4723328,37.5360792 61.0782045,40.5930004 60.1015691,43.4529034 Z M60.5306073,28.6582125 L60.5306073,28.6568549 L60.5306073,28.6582125 Z M55.8135475,21.4314973 L49.7306148,26.7484428 C49.2804956,26.2300185 48.7897325,25.7368792 48.2546152,25.2759822 C46.3207387,23.6105761 44.0704803,22.5616792 41.7385966,22.1040064 L43.2724421,14.1722004 C47.0383322,14.9069882 50.559684,16.5978489 53.4983599,19.1288792 C54.3314767,19.8463579 55.1040491,20.6164428 55.8135475,21.4314973 Z M31.4130084,15.0697276 C32.4970721,14.6768792 33.6089625,14.3724428 34.737043,14.1554004 L36.2695394,22.1045155 C33.2694758,22.6928549 30.4370476,24.2513519 28.2768467,26.7442004 L22.1878426,21.4158852 C24.6811215,18.5371458 27.8638299,16.3568792 31.4130084,15.0697276 Z M17.8998211,28.8581155 L25.5390294,31.5082731 C24.5099447,34.5293882 24.5224246,37.8048792 25.5364997,40.7946004 L17.8976287,43.4398367 C17.2969076,41.6680307 16.9132354,39.8083216 16.7655006,37.8927822 C16.5256844,34.7830852 16.9209932,31.7215822 17.8998211,28.8581155 Z M29.7469436,21.4359095 C30.4920734,21.4359095 31.0961205,20.8281021 31.0961205,20.0783337 C31.0961205,19.3285653 30.4920734,18.7207579 29.7469436,18.7207579 C29.0018137,18.7207579 28.3977666,19.3285653 28.3977666,20.0783337 C28.3977666,20.8281021 29.0018137,21.4359095 29.7469436,21.4359095 Z M20.5364501,37.5374367 C21.2815799,37.5374367 21.885627,36.9296294 21.885627,36.179861 C21.885627,35.4300926 21.2815799,34.8222852 20.5364501,34.8222852 C19.7913202,34.8222852 19.1872731,35.4300926 19.1872731,36.179861 C19.1872731,36.9296294 19.7913202,37.5374367 20.5364501,37.5374367 Z M57.4632536,37.4880549 C58.2083834,37.4880549 58.8124305,36.8802475 58.8124305,36.1304792 C58.8124305,35.3807108 58.2083834,34.7729034 57.4632536,34.7729034 C56.7181238,34.7729034 56.1140767,35.3807108 56.1140767,36.1304792 C56.1140767,36.8802475 56.7181238,37.4880549 57.4632536,37.4880549 Z M48.2105983,21.410964 C48.9557281,21.410964 49.5597752,20.8031566 49.5597752,20.0533882 C49.5597752,19.3036199 48.9557281,18.6958125 48.2105983,18.6958125 C47.4654685,18.6958125 46.8614214,19.3036199 46.8614214,20.0533882 C46.8614214,20.8031566 47.4654685,21.410964 48.2105983,21.410964 Z M35.741075,40.394357 C34.6013964,41.0689295 33.6775044,40.5418098 33.6775044,39.2226573 L33.6775044,32.5931213 C33.6775044,31.2714369 34.631159,30.7095033 35.80253,31.3353247 L41.689375,34.4804539 C42.8629942,35.1074764 42.8969401,36.1588208 41.75083,36.8372001 L35.741075,40.394357 Z M22.2764776,77 L22.2764776,72.8384 L25.1243492,72.8384 C26.8702805,72.8384 27.914977,71.5856 27.914977,70.1168 C27.914977,68.648 26.8989023,67.3952 25.1243492,67.3952 L21.8185284,67.3952 L21.8185284,77 L22.2764776,77 Z M25.1100382,72.4064 L22.2764776,72.4064 L22.2764776,67.8272 L25.1100382,67.8272 C26.5125076,67.8272 27.4140951,68.792 27.4140951,70.1168 C27.4140951,71.4416 26.5125076,72.4064 25.1100382,72.4064 Z M36.2057656,77 L36.2057656,76.568 L31.4116099,76.568 L31.4116099,67.3952 L30.9536608,67.3952 L30.9536608,77 L36.2057656,77 Z M46.8292328,77 L42.8507992,67.3952 L42.3069845,67.3952 L38.3285509,77 L38.8580546,77 L39.9170622,74.4224 L45.2407215,74.4224 L46.299729,77 L46.8292328,77 Z M45.0689906,73.9904 L40.0887931,73.9904 L42.5788918,67.928 L45.0689906,73.9904 Z M52.9161408,77 L52.9161408,72.8384 L56.7514653,67.3952 L56.1647179,67.3952 L52.6871662,72.3776 L49.2096145,67.3952 L48.6228671,67.3952 L52.4581916,72.8384 L52.4581916,77 L52.9161408,77 Z M32.0606098,56.2608 C32.4939919,56.356 32.9218882,56.4176 33.3278411,56.4176 C34.062945,56.4176 34.8693649,56.2104 35.5496102,55.7736 C35.4344074,55.7848 35.302747,55.7848 35.19303,55.7848 C34.2659214,55.7848 33.3113836,55.4824 32.3678174,54.8832 C30.9250389,53.948 29.9650152,52.0832 29.3780293,50.588 C28.2534301,51.0192 27.3482649,51.5624 26.9532837,51.8144 C27.4689536,52.6096 29.5755199,55.6784 32.0606098,56.2608 Z M32.636624,54.452 C33.4924166,55.0064 34.353695,55.2752 35.19303,55.2752 C35.7800159,55.2752 36.2737424,55.152 36.6632377,54.9616 C36.6138651,54.9616 36.5644924,54.9728 36.5206056,54.9728 C35.5550961,54.9728 34.1123176,54.6144 32.7902278,52.9232 C31.797289,51.6632 31.4516805,49.7704 31.3693928,48.2304 C30.4148549,48.2976 29.6468359,48.4544 29.2573406,48.5384 C29.4877463,49.4624 30.4806851,53.0744 32.636624,54.452 Z M36.5151198,54.4744 C36.7071245,54.4744 36.8991293,54.4576 37.0856482,54.424 C35.4344074,54.0208 34.3591809,52.5312 33.8709402,51.1256 C33.3607562,49.608 33.624077,47.7824 34.024544,46.3152 C33.0974354,46.052 32.2910155,45.9456 31.8960343,45.8952 C31.8027749,46.8472 31.5833409,50.588 33.1632656,52.6152 C34.3646667,54.1552 35.6538414,54.4744 36.5151198,54.4744 Z M37.5903463,53.9984 C36.3889452,53.3264 35.3850347,51.8704 35.3850347,49.6528 C35.3850347,48.0064 36.1914547,46.3992 37.0307897,45.184 C36.2956858,44.6912 35.6538414,44.344 35.302747,44.176 C34.9187375,45.0496 33.4979024,48.5048 34.3317516,50.952 C35.1546291,53.3488 36.7400396,53.892 37.5903463,53.9984 Z M45.7313473,54.8832 C44.7877811,55.4824 43.8332433,55.7848 42.9006488,55.7848 C42.785446,55.7848 42.6647573,55.7848 42.5550403,55.7736 C43.2297998,56.2104 44.0362197,56.4176 44.7658378,56.4176 C45.1717906,56.4176 45.5996869,56.356 46.0440407,56.2608 C48.5126731,55.6784 50.6247252,52.6096 51.1403951,51.8144 C50.7563856,51.5624 49.8402487,51.0192 48.7156495,50.588 C48.1396353,52.0832 47.1631541,53.9536 45.7313473,54.8832 Z M41.5895308,54.9784 C41.5291864,54.9784 41.4798138,54.9672 41.435927,54.9672 C41.8309082,55.152 42.3136629,55.2808 42.9061347,55.2808 C43.7399839,55.2808 44.6177198,55.012 45.4680265,54.4576 C47.6184796,53.08 48.6169042,49.4624 48.8473099,48.5384 C48.4633005,48.4544 47.6843098,48.2976 46.7407436,48.2304 C46.6419984,49.776 46.3018757,51.6688 45.3089369,52.9288 C43.9868471,54.62 42.5605262,54.9784 41.5895308,54.9784 Z M44.2227386,51.1256 C43.734498,52.5312 42.6647573,54.0208 41.0025448,54.424 C41.1945496,54.452 41.3810685,54.4744 41.5840449,54.4744 C42.4343516,54.4744 43.7235263,54.1552 44.9194415,52.6152 C46.4993663,50.588 46.2854181,46.8472 46.1976445,45.8952 C45.7971775,45.9456 44.9852717,46.052 44.0581631,46.3152 C44.4696019,47.7824 44.7384085,49.608 44.2227386,51.1256 Z M40.3442429,54.0208 C41.1396911,53.9536 42.8841913,53.5 43.7564414,50.9576 C44.5902906,48.5104 43.1804272,45.0496 42.785446,44.1816 C42.4343516,44.3496 41.7321629,44.7192 40.9586581,45.2624 C41.726677,46.3992 42.5824696,48.04 42.5824696,49.6528 C42.5824696,51.8872 41.5621015,53.3488 40.3442429,54.0208 Z M38.8630635,53.92 C38.879521,53.92 38.8959786,53.9312 38.9288937,53.9424 C38.9343795,53.9424 38.9508371,53.9312 38.9782663,53.9312 L38.9837522,53.9312 L39.0056956,53.9312 C39.0221531,53.9312 39.0440965,53.9424 39.0495824,53.9424 C39.0770116,53.9312 39.098955,53.92 39.1154125,53.92 C40.1412664,53.7632 42.0942289,52.688 42.0942289,49.6528 C42.0942289,47.06 39.6310824,44.2712 38.9837522,43.5824 C38.2925351,44.2992 35.8842471,46.9424 35.8842471,49.6528 C35.8787612,50.9744 36.5041481,53.584 38.8630635,53.92 Z" id="Yoga-play-Copy"></path>
        </g>
    </g>
</svg>