<?xml version="1.0" encoding="UTF-8"?>
<svg width="89px" height="117px" viewBox="0 0 89 117" version="1.1" xmlns="http://www.w3.org/2000/svg" xmlns:xlink="http://www.w3.org/1999/xlink">
    <!-- Generator: sketchtool 41.2 (35397) - http://www.bohemiancoding.com/sketch -->
    <title>8427AD58-69F5-42B2-8B8A-175597C19A7D</title>
    <desc>Created with sketchtool.</desc>
    <defs></defs>
    <g id="Page-1" stroke="none" stroke-width="1" fill="none" fill-rule="evenodd" opacity="0.378475998">
        <g id="Table-basic-version" transform="translate(-662.000000, -448.000000)" fill="#FFFFFF">
            <path d="M735.43598,458.692973 C728.900503,453.098876 721.21229,449.73071 713.291727,448.515829 C698.584727,446.259578 683.080418,451.428301 672.693479,463.563905 C656.712465,482.23531 658.893059,510.325873 677.564393,526.307249 C684.09987,531.901046 691.787783,535.268911 699.708346,536.484092 C714.415045,538.740643 729.919955,533.57132 740.306593,521.435416 C756.287608,502.764311 754.106714,474.673748 735.43598,458.692973 Z M743.829224,506 L730,501.273718 C731.862618,495.886216 731.84003,490.044485 730.004273,484.71327 L743.818845,480 C744.910714,483.163262 745.608204,486.484793 745.876211,489.908004 C746.310273,495.448631 745.59691,500.899985 743.829224,506 Z M745,479.002407 L745,479 L745,479.002407 Z M736,466.698907 L725.195464,476 C724.39596,475.093105 723.524264,474.230441 722.573786,473.42418 C719.138824,470.510835 715.141904,468.675968 711,467.875347 L713.724424,454 C720.413418,455.285387 726.668061,458.24326 731.887752,462.670868 C733.367538,463.925975 734.739785,465.273108 736,466.698907 Z M693.377937,455.597865 C695.302534,454.911329 697.276534,454.3793 699.279276,454 L702,467.891756 C696.673825,468.919929 691.645261,471.643535 687.810139,476 L677,466.688316 C681.426453,461.657473 687.076888,457.847272 693.377937,455.597865 Z M669.176184,480 L683,484.725375 C681.137781,490.112187 681.160365,495.952565 682.995422,501.2834 L669.172217,506 C668.08516,502.840774 667.390871,499.524811 667.123532,496.109301 C666.689564,490.564542 667.40491,485.105716 669.176184,480 Z M690.5,467 C691.880712,467 693,465.880712 693,464.5 C693,463.119288 691.880712,462 690.5,462 C689.119288,462 688,463.119288 688,464.5 C688,465.880712 689.119288,467 690.5,467 Z M673.5,495 C674.880712,495 676,493.880712 676,492.5 C676,491.119288 674.880712,490 673.5,490 C672.119288,490 671,491.119288 671,492.5 C671,493.880712 672.119288,495 673.5,495 Z M739.5,495 C740.880712,495 742,493.880712 742,492.5 C742,491.119288 740.880712,490 739.5,490 C738.119288,490 737,491.119288 737,492.5 C737,493.880712 738.119288,495 739.5,495 Z M722.5,467 C723.880712,467 725,465.880712 725,464.5 C725,463.119288 723.880712,462 722.5,462 C721.119288,462 720,463.119288 720,464.5 C720,465.880712 721.119288,467 722.5,467 Z M702.633595,498.710053 C699.522247,500.527041 697,499.070409 697,495.478926 L697,488.521074 C697,484.919584 699.578961,483.359433 702.769585,485.041287 L709.230415,488.446946 C712.416869,490.126603 712.478224,492.960918 709.366405,494.77818 L702.633595,498.710053 Z M676.826291,565 L676.826291,557.634183 L681.964789,557.634183 C685.115023,557.634183 687,555.416792 687,552.817091 C687,550.217391 685.166667,548 681.964789,548 L676,548 L676,565 L676.826291,565 Z M681.963788,557 L677,557 L677,549 L681.963788,549 C684.420613,549 686,550.685535 686,553 C686,555.314465 684.420613,557 681.963788,557 Z M701,565 L701,564.235382 L692.784741,564.235382 L692.784741,548 L692,548 L692,565 L701,565 Z M720,565 L712.979798,548 L712.020202,548 L705,565 L705.934343,565 L707.80303,560.437781 L717.19697,560.437781 L719.065657,565 L720,565 Z M717,560 L708,560 L712.5,549 L717,560 Z M731.394366,565 L731.394366,557.634183 L738,548 L736.989437,548 L731,556.818591 L725.010563,548 L724,548 L730.605634,557.634183 L730.605634,565 L731.394366,565 Z M693.911934,527.731028 C694.668156,527.894332 695.414805,528 696.123165,528 C697.405871,528 698.813019,527.644573 700,526.895293 C699.798979,526.914505 699.569241,526.914505 699.377792,526.914505 C697.760051,526.914505 696.094448,526.395773 694.44799,525.367915 C691.93044,523.763689 690.255265,520.564841 689.231015,518 C687.268666,518.739673 685.689215,519.67147 685,520.103746 C685.899809,521.467819 689.575622,526.731988 693.911934,527.731028 Z M694.931852,524.597774 C696.434074,525.54213 697.945926,526 699.419259,526 C700.44963,526 701.316296,525.790143 702,525.465819 C701.913333,525.465819 701.826667,525.484897 701.74963,525.484897 C700.054815,525.484897 697.522222,524.874404 695.201481,521.993641 C693.458519,519.847377 692.851852,516.623211 692.707407,514 C691.031852,514.114467 689.683704,514.381558 689,514.524642 C689.404444,516.098569 691.147407,522.251192 694.931852,524.597774 Z M702.540387,525 C702.890387,525 703.240387,524.970627 703.580387,524.91188 C700.570387,524.206919 698.610387,521.60248 697.720387,519.144909 C696.790387,516.491514 697.270387,513.299608 698.000387,510.734334 C696.310387,510.274151 694.840387,510.08812 694.120387,510 C693.950387,511.664491 693.550387,518.204961 696.430387,521.749347 C698.620387,524.441906 700.970387,525 702.540387,525 Z M704.410317,524 C702.220317,522.836944 700.390317,520.31699 700.390317,516.478905 C700.390317,513.629418 701.860317,510.847777 703.390317,508.744584 C702.050317,507.891676 700.880317,507.290764 700.240317,507 C699.540317,508.511973 696.950317,514.492018 698.470317,518.72748 C699.970317,522.875713 702.860317,523.815849 704.410317,524 Z M718.549521,525.367915 C716.900958,526.395773 715.233227,526.914505 713.603834,526.914505 C713.402556,526.914505 713.191693,526.914505 713,526.895293 C714.178914,527.644573 715.587859,528 716.86262,528 C717.571885,528 718.319489,527.894332 719.095847,527.731028 C723.408946,526.731988 727.099042,521.467819 728,520.103746 C727.329073,519.67147 725.728435,518.739673 723.763578,518 C722.757188,520.564841 721.051118,523.773295 718.549521,525.367915 Z M711.26943,525.485306 C711.163583,525.485306 711.07698,525.466243 711,525.466243 C711.69282,525.780778 712.5396,526 713.57883,526 C715.041451,526 716.581051,525.542494 718.072539,524.598888 C721.84456,522.25417 723.595855,516.096902 724,514.524226 C723.326425,514.381255 721.96003,514.114376 720.304959,514 C720.131754,516.630659 719.535159,519.852264 717.793486,521.996823 C715.474463,524.875298 712.972613,525.485306 711.26943,525.485306 Z M715.87,519.144909 C714.98,521.60248 713.03,524.206919 710,524.91188 C710.35,524.960836 710.69,525 711.06,525 C712.61,525 714.96,524.441906 717.14,521.749347 C720.02,518.204961 719.63,511.664491 719.47,510 C718.74,510.08812 717.26,510.274151 715.57,510.734334 C716.32,513.299608 716.81,516.491514 715.87,519.144909 Z M709,524 C710.45,523.883893 713.63,523.100171 715.22,518.707456 C716.74,514.479226 714.17,508.499715 713.45,507 C712.81,507.290268 711.53,507.928856 710.12,508.867388 C711.52,510.831531 713.08,513.666477 713.08,516.453045 C713.08,520.313603 711.22,522.83893 709,524 Z M706.276535,523.961081 C706.305686,523.961081 706.334838,523.980541 706.393142,524 C706.402859,524 706.432011,523.980541 706.480597,523.980541 L706.490314,523.980541 L706.529183,523.980541 C706.558335,523.980541 706.597204,524 706.606921,524 C706.655508,523.980541 706.694377,523.961081 706.723529,523.961081 C708.540656,523.688649 712,521.820541 712,516.547027 C712,512.042162 707.636951,507.196757 706.490314,506 C705.26594,507.245405 701.000063,511.837838 701.000063,516.547027 C700.990346,518.843243 702.098113,523.377297 706.276535,523.961081 Z" id="Yoga-play"></path>
        </g>
    </g>
</svg>