<?xml version="1.0" encoding="UTF-8"?>
<svg width="81px" height="119px" viewBox="0 0 81 119" version="1.1" xmlns="http://www.w3.org/2000/svg" xmlns:xlink="http://www.w3.org/1999/xlink">
    <!-- Generator: sketchtool 42 (36781) - http://www.bohemiancoding.com/sketch -->
    <title>5CDC1507-DA13-4CBB-BC3C-C0659B7907D3</title>
    <desc>Created with sketchtool.</desc>
    <defs>
        <linearGradient x1="50%" y1="2.82804528%" x2="50%" y2="100%" id="linearGradient-1">
            <stop stop-color="#000000" offset="0%"></stop>
            <stop stop-color="#8988B9" offset="100%"></stop>
        </linearGradient>
    </defs>
    <g id="Page-1" stroke="none" stroke-width="1" fill="none" fill-rule="evenodd">
        <g id="Cards" transform="translate(-250.000000, -233.000000)">
            <g id="Black3" transform="translate(248.000000, 232.000000)">
                <path d="M83.7215864,113.526329 C83.7901033,116.32672 81.5765864,118.655938 78.7841711,118.724651 L9.81976435,120.394789 C7.02455248,120.462099 4.70196774,118.243662 4.6362474,115.441869 L2.03679825,7.57704146 C1.9682813,4.77384606 4.18039994,2.44602996 6.9756118,2.37871962 L75.9400186,0.707179389 C78.7338321,0.641271343 81.0564169,2.85690353 81.1221372,5.66150123 L83.7215864,113.526329 Z" id="Shape-Copy" fill="#FFFFFF" transform="translate(42.879192, 60.551013) rotate(1.000000) translate(-42.879192, -60.551013) "></path>
                <path d="M50.7033898,73.6372043 C54.7059492,73.6372043 57.9491525,70.4067541 57.9491525,66.4220833 C57.9491525,62.4374124 54.7059492,59.2069623 50.7033898,59.2069623 C49.3904576,59.2069623 48.1615763,59.5600222 47.0998305,60.1689784 L46.8979153,60.1689784 C48.8745593,58.9982048 50.2039153,56.8548328 50.2039153,54.3968816 C50.2039153,50.6863854 47.1838814,47.6781609 43.4576271,47.6781609 C39.7313729,47.6781609 36.7103729,50.6863854 36.7103729,54.3968816 C36.7103729,56.8548328 38.0397288,58.9982048 40.017339,60.1689784 L39.8163898,60.1689784 C38.753678,59.5600222 37.5257627,59.2069623 36.2118644,59.2069623 C32.2102712,59.2069623 28.9661017,62.4374124 28.9661017,66.4220833 C28.9661017,70.4067541 32.2102712,73.6372043 36.2118644,73.6372043 C38.2938136,73.6372043 40.1641864,72.7579215 41.4867797,71.3591501 C41.0897119,75.3236185 36.8929661,78.4472849 32.8305085,78.4472849 L33.3135593,78.4472849 C32.5126602,78.4472849 31.8644068,79.0937598 31.8644068,79.8903091 C31.8644068,80.6868585 32.5126602,81.3333333 33.3135593,81.3333333 L53.6016949,81.3333333 C54.4016271,81.3333333 55.0508475,80.6868585 55.0508475,79.8903091 C55.0508475,79.0937598 54.4016271,78.4472849 53.6016949,78.4472849 L54.0847458,78.4472849 C50.0222881,78.4472849 45.8255424,75.3226565 45.4294407,71.358188 C46.7501017,72.7579215 48.6224068,73.6372043 50.7033898,73.6372043" id="Page-1" fill="url(#linearGradient-1)"></path>
                <path d="M17.6207627,42.949531 C18.6214025,42.949531 19.4322034,42.1419184 19.4322034,41.1457507 C19.4322034,40.149583 18.6214025,39.3419705 17.6207627,39.3419705 C17.2925297,39.3419705 16.9853093,39.4302354 16.7198729,39.5824745 L16.6693941,39.5824745 C17.1635551,39.2897811 17.4958941,38.7539381 17.4958941,38.1394503 C17.4958941,37.2118262 16.7408856,36.4597701 15.809322,36.4597701 C14.8777585,36.4597701 14.1225085,37.2118262 14.1225085,38.1394503 C14.1225085,38.7539381 14.4548475,39.2897811 14.94925,39.5824745 L14.8990127,39.5824745 C14.6333347,39.4302354 14.3263559,39.3419705 13.9978814,39.3419705 C12.9974831,39.3419705 12.1864407,40.149583 12.1864407,41.1457507 C12.1864407,42.1419184 12.9974831,42.949531 13.9978814,42.949531 C14.5183686,42.949531 14.9859619,42.7297103 15.3166102,42.3800174 C15.2173432,43.3711345 14.1681568,44.1520511 13.1525424,44.1520511 L13.2733051,44.1520511 C13.0730803,44.1520511 12.9110169,44.3136698 12.9110169,44.5128072 C12.9110169,44.7119445 13.0730803,44.8735632 13.2733051,44.8735632 L18.345339,44.8735632 C18.545322,44.8735632 18.7076271,44.7119445 18.7076271,44.5128072 C18.7076271,44.3136698 18.545322,44.1520511 18.345339,44.1520511 L18.4661017,44.1520511 C17.4504873,44.1520511 16.4013008,43.370894 16.3022754,42.3797769 C16.6324407,42.7297103 17.1005169,42.949531 17.6207627,42.949531" id="Page-1-Copy-2" fill="url(#linearGradient-1)"></path>
                <text id="3" transform="translate(15.881961, 22.413793) rotate(1.000000) translate(-15.881961, -22.413793) " font-family="ProductSans-Bold, Product Sans" font-size="22.3999996" font-weight="bold" fill="#343F44">
                    <tspan x="9.38983051" y="30.4137931">3</tspan>
                </text>
            </g>
        </g>
    </g>
</svg>