<?xml version="1.0" encoding="UTF-8"?>
<svg width="81px" height="119px" viewBox="0 0 81 119" version="1.1" xmlns="http://www.w3.org/2000/svg" xmlns:xlink="http://www.w3.org/1999/xlink">
    <!-- Generator: sketchtool 42 (36781) - http://www.bohemiancoding.com/sketch -->
    <title>ACC34C3B-2CF7-4DC9-9022-F99FD0E78913</title>
    <desc>Created with sketchtool.</desc>
    <defs>
        <linearGradient x1="50%" y1="0%" x2="50%" y2="100%" id="linearGradient-1">
            <stop stop-color="#00E68B" offset="0%"></stop>
            <stop stop-color="#00C853" offset="100%"></stop>
        </linearGradient>
    </defs>
    <g id="Page-1" stroke="none" stroke-width="1" fill="none" fill-rule="evenodd">
        <g id="Cards" transform="translate(-155.000000, -408.000000)">
            <g id="Green2" transform="translate(153.000000, 407.000000)">
                <path d="M83.7215864,113.526329 C83.7901033,116.32672 81.5765864,118.655938 78.7841711,118.724651 L9.81976435,120.394789 C7.02455248,120.462099 4.70196774,118.243662 4.6362474,115.441869 L2.03679825,7.57704146 C1.9682813,4.77384606 4.18039994,2.44602996 6.9756118,2.37871962 L75.9400186,0.707179389 C78.7338321,0.641271343 81.0564169,2.85690353 81.1221372,5.66150123 L83.7215864,113.526329 Z" id="Shape-Copy-2" fill="#FFFFFF" transform="translate(42.879192, 60.551013) rotate(1.000000) translate(-42.879192, -60.551013) "></path>
                <text id="2" transform="translate(15.881961, 23.816092) rotate(1.000000) translate(-15.881961, -23.816092) " font-family="ProductSans-Bold, Product Sans" font-size="22.3999996" font-weight="bold" fill="#343F44">
                    <tspan x="9.38983051" y="31.816092">2</tspan>
                </text>
                <path d="M56.9322034,66.6086134 C56.9322034,58.2610937 42.9491518,47.6781609 42.9491518,47.6781609 C42.9491518,47.6781609 28.9661017,58.2610937 28.9661017,66.6086134 C28.9661017,73.1381034 36.6903685,76.1706558 41.0291869,71.4714196 C40.7117124,75.3998255 36.568481,78.5132255 32.5556424,78.5132255 L33.0280747,78.5132255 C32.2457276,78.5132255 31.6107778,79.1449297 31.6107778,79.9232795 C31.6107778,80.7016292 32.2457276,81.3333333 33.0280747,81.3333333 L52.8702304,81.3333333 C53.6525783,81.3333333 54.2875273,80.7016292 54.2875273,79.9232795 C54.2875273,79.1449297 53.6525783,78.5132255 52.8702304,78.5132255 L53.3426627,78.5132255 C49.3307675,78.5132255 45.1865912,75.3998255 44.8700616,71.4714121 C49.2079351,76.1706558 56.9322034,73.1381034 56.9322034,66.6086134" id="Page-1" fill="url(#linearGradient-1)"></path>
                <path d="M17.779661,42.5946821 C17.779661,40.5078022 14.2838981,37.862069 14.2838981,37.862069 C14.2838981,37.862069 10.7881356,40.5078022 10.7881356,42.5946821 C10.7881356,44.2270546 12.7192023,44.9851927 13.8039069,43.8103836 C13.7245383,44.7924851 12.6887304,45.5708351 11.6855208,45.5708351 L11.8036289,45.5708351 C11.6080421,45.5708351 11.4493046,45.7287612 11.4493046,45.9233486 C11.4493046,46.117936 11.6080421,46.2758621 11.8036289,46.2758621 L16.7641678,46.2758621 C16.9597547,46.2758621 17.118492,46.117936 17.118492,45.9233486 C17.118492,45.7287612 16.9597547,45.5708351 16.7641678,45.5708351 L16.8822758,45.5708351 C15.879302,45.5708351 14.843258,44.7924851 14.7641256,43.8103817 C15.8485939,44.9851927 17.779661,44.2270546 17.779661,42.5946821" id="Page-1-Copy-3" fill="url(#linearGradient-1)"></path>
            </g>
        </g>
    </g>
</svg>