<?xml version="1.0" encoding="UTF-8"?>
<svg width="81px" height="119px" viewBox="0 0 81 119" version="1.1" xmlns="http://www.w3.org/2000/svg" xmlns:xlink="http://www.w3.org/1999/xlink">
    <!-- Generator: sketchtool 42 (36781) - http://www.bohemiancoding.com/sketch -->
    <title>8310CD03-D9A3-47AA-B6D4-93E042BB6193</title>
    <desc>Created with sketchtool.</desc>
    <defs>
        <linearGradient x1="50%" y1="0%" x2="50%" y2="100%" id="linearGradient-1">
            <stop stop-color="#F53037" offset="0%"></stop>
            <stop stop-color="#EA5297" offset="100%"></stop>
        </linearGradient>
    </defs>
    <g id="Page-1" stroke="none" stroke-width="1" fill="none" fill-rule="evenodd">
        <g id="Cards" transform="translate(-1105.000000, -57.000000)">
            <g id="heart--CardQ" transform="translate(1103.000000, 55.000000)">
                <path d="M83.0846429,114.222881 C83.1531598,117.023272 80.9396429,119.352491 78.1472276,119.421203 L9.18282083,121.091341 C6.38760896,121.158651 4.06502422,118.940215 3.99930388,116.138422 L1.39985472,8.273594 C1.33133778,5.4703986 3.54345642,3.14258251 6.33866828,3.07527216 L75.3030751,1.40373193 C78.0968886,1.33782389 80.4194734,3.55345607 80.4851937,6.35805377 L83.0846429,114.222881 Z" id="Shape" fill="#FFFFFF" transform="translate(42.242248, 61.247566) rotate(1.000000) translate(-42.242248, -61.247566) "></path>
                <text id="Q" transform="translate(16.491525, 21.011494) rotate(1.000000) translate(-16.491525, -21.011494) " font-family="ProductSans-Bold, Product Sans" font-size="22.3999996" font-weight="bold" fill="#343F44">
                    <tspan x="6.99152542" y="29.0114943">Q</tspan>
                </text>
                <path d="M25.1694915,56.9009865 C25.1694915,46.9853835 38.7137992,43.3105589 42.8813626,54.7891738 C47.0489171,43.3105589 60.5932203,46.9853835 60.5932203,56.9009865 C60.5932203,67.6741702 42.8813626,81.3333333 42.8813626,81.3333333 C42.8813626,81.3333333 25.1694915,67.6741702 25.1694915,56.9009865" id="Page-1" fill="url(#linearGradient-1)"></path>
                <path d="M9.78813559,37.3631777 C9.78813559,34.8842769 13.1742125,33.9655708 14.2161034,36.8352245 C15.257992,33.9655708 18.6440678,34.8842769 18.6440678,37.3631777 C18.6440678,40.0564736 14.2161034,43.4712644 14.2161034,43.4712644 C14.2161034,43.4712644 9.78813559,40.0564736 9.78813559,37.3631777" id="Page-1-Copy" fill="url(#linearGradient-1)"></path>
            </g>
        </g>
    </g>
</svg>