<?xml version="1.0" encoding="UTF-8"?>
<svg width="245px" height="64px" viewBox="0 0 245 64" version="1.1" xmlns="http://www.w3.org/2000/svg" xmlns:xlink="http://www.w3.org/1999/xlink">
    <!-- Generator: sketchtool 42 (36781) - http://www.bohemiancoding.com/sketch -->
    <title>4A8DBEFD-31D4-4331-8023-7698F7D48BA7</title>
    <desc>Created with sketchtool.</desc>
    <defs>
        <linearGradient x1="50%" y1="0%" x2="50%" y2="100%" id="linearGradient-1">
            <stop stop-color="#F53037" offset="0%"></stop>
            <stop stop-color="#EA5297" offset="100%"></stop>
        </linearGradient>
        <linearGradient x1="50%" y1="2.82804528%" x2="50%" y2="100%" id="linearGradient-2">
            <stop stop-color="#000000" offset="0%"></stop>
            <stop stop-color="#8988B9" offset="100%"></stop>
        </linearGradient>
        <linearGradient x1="50%" y1="0%" x2="50%" y2="100%" id="linearGradient-3">
            <stop stop-color="#00E68B" offset="0%"></stop>
            <stop stop-color="#00C853" offset="100%"></stop>
        </linearGradient>
        <polygon id="path-4" points="0.162893311 0 12.7706593 0 12.7706593 22.0689655 0.162893311 22.0689655"></polygon>
        <linearGradient x1="4.93828079%" y1="0%" x2="100%" y2="100%" id="linearGradient-6">
            <stop stop-color="#22DEFF" offset="0%"></stop>
            <stop stop-color="#22ADFF" offset="100%"></stop>
        </linearGradient>
        <linearGradient x1="50%" y1="0%" x2="50%" y2="100%" id="linearGradient-7">
            <stop stop-color="#5BA6FF" offset="0%"></stop>
            <stop stop-color="#2E6CFF" offset="100%"></stop>
        </linearGradient>
        <path d="M6.6808022,19.0024092 C6.56224576,19.1676812 6.37118374,19.1676812 6.2526273,19.0024092 L0.251810345,10.5990356 C0.1332543,10.4332771 0.1332543,10.1645261 0.251810345,9.99875972 L6.2526273,1.59538808 C6.37118374,1.42962562 6.56224576,1.42962562 6.6808022,1.59538808 L12.6821094,9.99876365 C12.800176,10.1645261 12.800176,10.4332771 12.6821094,10.5990395 L6.6808022,19.0024092 Z" id="path-8"></path>
        <polygon id="path-9" points="0.162893311 0 12.7706593 0 12.7706593 22.0689655 0.162893311 22.0689655"></polygon>
        <polygon id="path-11" points="0.045248142 0 3.54740537 0 3.54740537 4.41377471 0.045248142 4.41377471"></polygon>
    </defs>
    <g id="Page-1" stroke="none" stroke-width="1" fill="none" fill-rule="evenodd">
        <g id="Table-Setting" transform="translate(-534.000000, -529.000000)">
            <g id="Group-Copy-2" transform="translate(314.000000, 512.000000)">
                <g id="Group-9-Copy" transform="translate(219.000000, 17.000000)">
                    <g id="four-crds">
                        <g id="Group-10">
                            <g id="Group-5">
                                <path d="M43.6636315,59.9202001 C43.6996393,61.3892575 42.5363655,62.6111426 41.0688622,62.6471886 L4.82586541,63.5233265 C3.35689237,63.5586368 2.13629996,62.3948667 2.10176182,60.9250736 L0.735668334,4.34024603 C0.69966049,2.8697173 1.86219944,1.64856787 3.33117248,1.61325753 L39.5741692,0.736383965 C41.0424074,0.701809252 42.2629998,1.8641081 42.297538,3.33537247 L43.6636315,59.9202001 Z" id="Shape" fill="#FFFFFF" transform="translate(22.199650, 32.129871) rotate(1.000000) translate(-22.199650, -32.129871) "></path>
                                <text id="A" transform="translate(7.715966, 17.178161) rotate(1.000000) translate(-7.715966, -17.178161) " font-family="ProductSans-Regular, Product Sans" font-size="22.3999996" font-weight="normal" fill="#343F44">
                                    <tspan x="3.67426974" y="25.6781609">A</tspan>
                                </text>
                                <path d="M13.2273711,29.8496978 C13.2273711,24.64807 20.345337,22.7202932 22.5355246,28.7418617 C24.7257075,22.7202932 31.8436711,24.64807 31.8436711,29.8496978 C31.8436711,35.5012041 22.5355246,42.6666667 22.5355246,42.6666667 C22.5355246,42.6666667 13.2273711,35.5012041 13.2273711,29.8496978" id="Page-1" fill="url(#linearGradient-1)"></path>
                                <path d="M94.9749614,59.5547954 C95.0109692,61.0238529 93.8476954,62.245738 92.3801921,62.2817839 L56.1371953,63.1579219 C54.6682223,63.1932322 53.4476299,62.0294621 53.4130917,60.559669 L52.0469982,3.97484142 C52.0109904,2.50431269 53.1735293,1.28316326 54.6425024,1.24785292 L90.8854991,0.370979352 C92.3537373,0.336404639 93.5743297,1.49870349 93.6088679,2.96996786 L94.9749614,59.5547954 Z" id="Shape-Copy" fill="#FFFFFF" transform="translate(73.510980, 31.764466) rotate(1.000000) translate(-73.510980, -31.764466) "></path>
                                <path d="M77.6228453,38.6293531 C79.726318,38.6293531 81.4307248,36.9346907 81.4307248,34.8443715 C81.4307248,32.7540524 79.726318,31.05939 77.6228453,31.05939 C76.9328575,31.05939 76.2870411,31.2446018 75.7290599,31.5640542 L75.622947,31.5640542 C76.6617365,30.9498779 77.3603555,29.8254861 77.3603555,28.536069 C77.3603555,26.5895792 75.7732313,25.0114943 73.8149657,25.0114943 C71.8567002,25.0114943 70.2690683,26.5895792 70.2690683,28.536069 C70.2690683,29.8254861 70.9676873,30.9498779 72.0069845,31.5640542 L71.9013793,31.5640542 C71.3428903,31.2446018 70.6975817,31.05939 70.0070862,31.05939 C67.9041212,31.05939 66.1992066,32.7540524 66.1992066,34.8443715 C66.1992066,36.9346907 67.9041212,38.6293531 70.0070862,38.6293531 C71.1012169,38.6293531 72.0841576,38.16809 72.7792225,37.4343082 C72.5705507,39.5140294 70.3650269,41.1526741 68.2300757,41.1526741 L68.4839344,41.1526741 C68.0630363,41.1526741 67.7223585,41.4918084 67.7223585,41.9096704 C67.7223585,42.3275323 68.0630363,42.6666667 68.4839344,42.6666667 L79.1459971,42.6666667 C79.566387,42.6666667 79.907573,42.3275323 79.907573,41.9096704 C79.907573,41.4918084 79.566387,41.1526741 79.1459971,41.1526741 L79.3998558,41.1526741 C77.2649046,41.1526741 75.0593808,39.5135247 74.8512167,37.4338036 C75.5452662,38.16809 76.5292223,38.6293531 77.6228453,38.6293531" id="Page-1" fill="url(#linearGradient-2)"></path>
                                <text id="9" transform="translate(59.323073, 17.913793) rotate(1.000000) translate(-59.323073, -17.913793) " font-family="ProductSans-Regular, Product Sans" font-size="22.3999996" font-weight="normal" fill="#343F44">
                                    <tspan x="55.9112514" y="26.4137931">9</tspan>
                                </text>
                            </g>
                        </g>
                        <g id="Group-11" transform="translate(50.976596, 0.000000)"></g>
                        <g id="Group-12" transform="translate(100.902128, 0.000000)">
                            <path d="M43.9983656,59.5547954 C44.0343735,61.0238529 42.8710997,62.245738 41.4035963,62.2817839 L5.16059956,63.1579219 C3.69162652,63.1932322 2.47103411,62.0294621 2.43649597,60.559669 L1.07040248,3.97484142 C1.03439464,2.50431269 2.19693359,1.28316326 3.66590663,1.24785292 L39.9089034,0.370979352 C41.3771416,0.336404639 42.597734,1.49870349 42.6322721,2.96996786 L43.9983656,59.5547954 Z" id="Shape-Copy-2" fill="#FFFFFF" transform="translate(22.534384, 31.764466) rotate(1.000000) translate(-22.534384, -31.764466) "></path>
                            <text id="8" transform="translate(8.346478, 18.649425) rotate(1.000000) translate(-8.346478, -18.649425) " font-family="ProductSans-Regular, Product Sans" font-size="22.3999996" font-weight="normal" fill="#343F44">
                                <tspan x="4.93465561" y="27.1494253">8</tspan>
                            </text>
                            <path d="M29.9196899,34.9422234 C29.9196899,30.5631967 22.57115,25.0114943 22.57115,25.0114943 C22.57115,25.0114943 15.2226109,30.5631967 15.2226109,34.9422234 C15.2226109,38.3675296 19.2819596,39.9583768 21.5621471,37.4932037 C21.3953042,39.5540068 19.2179038,41.1872658 17.1090291,41.1872658 L17.3573074,41.1872658 C16.946159,41.1872658 16.6124726,41.5186516 16.6124726,41.9269663 C16.6124726,42.3352809 16.946159,42.6666667 17.3573074,42.6666667 L27.7849934,42.6666667 C28.1961422,42.6666667 28.5298282,42.3352809 28.5298282,41.9269663 C28.5298282,41.5186516 28.1961422,41.1872658 27.7849934,41.1872658 L28.0332717,41.1872658 C25.9248927,41.1872658 23.7469958,39.5540068 23.5806494,37.4931998 C25.8603403,39.9583768 29.9196899,38.3675296 29.9196899,34.9422234" id="Page-1" fill="url(#linearGradient-3)"></path>
                        </g>
                        <g id="Group-13" transform="translate(151.353191, 0.000000)">
                            <path d="M43.6636315,59.9202001 C43.6996393,61.3892575 42.5363655,62.6111426 41.0688622,62.6471886 L4.82586541,63.5233265 C3.35689237,63.5586368 2.13629996,62.3948667 2.10176182,60.9250736 L0.735668334,4.34024603 C0.69966049,2.8697173 1.86219944,1.64856787 3.33117248,1.61325753 L39.5741692,0.736383965 C41.0424074,0.701809252 42.2629998,1.8641081 42.297538,3.33537247 L43.6636315,59.9202001 Z" id="Shape-Copy-3" fill="#FFFFFF" transform="translate(22.199650, 32.129871) rotate(1.000000) translate(-22.199650, -32.129871) "></path>
                            <g id="Page-1" transform="translate(15.431933, 23.540230)">
                                <mask id="mask-10" fill="white">
                                    <use xlink:href="#path-9"></use>
                                </mask>
                                <g id="Clip-2"></g>
                                <path d="M6.6808022,19.0024092 C6.56224576,19.1676812 6.37118374,19.1676812 6.2526273,19.0024092 L0.251810345,10.5990356 C0.1332543,10.4332771 0.1332543,10.1645261 0.251810345,9.99875972 L6.2526273,1.59538808 C6.37118374,1.42962562 6.56224576,1.42962562 6.6808022,1.59538808 L12.6821094,9.99876365 C12.800176,10.1645261 12.800176,10.4332771 12.6821094,10.5990395 L6.6808022,19.0024092 Z" id="Fill-1" fill="url(#linearGradient-1)" mask="url(#mask-10)"></path>
                            </g>
                            <g id="Page-1-Copy-4" transform="translate(5.143978, 19.126437)">
                                <mask id="mask-12" fill="white">
                                    <use xlink:href="#path-11"></use>
                                </mask>
                                <g id="Clip-2"></g>
                                <path d="M1.85577839,4.38278621 C1.82284605,4.42410421 1.76977326,4.42410421 1.73684092,4.38278621 L0.0699473181,2.2819428 C0.0370150833,2.24050317 0.0370150833,2.17331543 0.0699473181,2.13187384 L1.73684092,0.0310309272 C1.76977326,-0.0104096858 1.82284605,-0.0104096858 1.85577839,0.0310309272 L3.52280818,2.13187482 C3.55560444,2.17331543 3.55560444,2.24050317 3.52280818,2.28194379 L1.85577839,4.38278621 Z" id="Fill-1" fill="url(#linearGradient-1)" mask="url(#mask-12)"></path>
                            </g>
                            <text id="3" transform="translate(6.981113, 17.913793) rotate(1.000000) translate(-6.981113, -17.913793) " font-family="ProductSans-Regular, Product Sans" font-size="22.3999996" font-weight="normal" fill="#343F44">
                                <tspan x="3.67426974" y="26.4137931">3</tspan>
                            </text>
                        </g>
                    </g>
                </g>
            </g>
        </g>
    </g>
</svg>